<svg xmlns="http://www.w3.org/2000/svg" viewBox="0 0 16 11.1"><path fill="white" d="M15.8 5.2s-.2-.3-.3-.4c-.4-.5-1.3-1.7-2.6-2.8C11.3.7 9.6 0 8 0S4.7.7 3.1 2C1.8 3.1.9 4.3.5 4.8c-.1.1-.2.4-.3.4l-.2.3.2.4s.2.3.3.4C.9 6.8 1.8 8 3.1 9c1.6 1.3 3.3 2 4.9 2s3.3-.7 4.9-2c1.3-1.1 2.2-2.3 2.6-2.8.1-.1.2-.3.3-.4l.2-.3-.2-.3zM8 9.8c-2.1 0-4.3-1.4-6.5-4.3C3.7 2.7 5.9 1.2 8 1.2c2.1 0 4.3 1.4 6.5 4.3-2.2 2.9-4.4 4.3-6.5 4.3z"/><circle fill="white" cx="8" cy="5.5" r="1.2"/><path fill="white" d="M8 2C6 2 4.4 3.6 4.4 5.5c0 2 1.6 3.6 3.6 3.6s3.6-1.6 3.6-3.6C11.6 3.6 10 2 8 2zm0 5.8c-1.3 0-2.3-1-2.3-2.3s1-2.3 2.3-2.3 2.3 1 2.3 2.3c0 1.3-1 2.3-2.3 2.3z"/></svg>
