<svg id="Layer_1" data-name="Layer 1" xmlns="http://www.w3.org/2000/svg" viewBox="0 0 30.05 29.87"><defs><style>.cls-1{fill:#6caa55;}</style></defs><title>Геокомпозит</title><path class="cls-1" d="M0,0V29.87H30.05V0ZM28.55,5.71h-4V1.5h4ZM12.87,16.81v-4.1h4.32v4.1Zm4.32,1.5v4H12.87v-4Zm-5.82-1.5H7v-4.1h4.33Zm1.5-5.6v-4h4.32v4Zm5.82,1.5H23v4.1H18.69Zm0-1.5v-4H23v4Zm0-5.5V1.5H23V5.71Zm-1.5,0H12.87V1.5h4.32Zm-5.82,0H7V1.5h4.33Zm0,1.5v4H7v-4Zm-5.83,4h-4v-4h4Zm0,1.5v4.1h-4v-4.1Zm0,5.6v4h-4v-4Zm1.5,0h4.33v4H7Zm4.33,5.5v4.56H7V23.81Zm1.5,0h4.32v4.56H12.87Zm5.82,0H23v4.56H18.69Zm0-1.5v-4H23v4Zm5.82-4h4v4h-4Zm0-1.5v-4.1h4v4.1Zm0-5.6v-4h4v4ZM5.54,1.5V5.71h-4V1.5Zm-4,22.31h4v4.56h-4Zm23,4.56V23.81h4v4.56Z"/></svg>