<svg id="Layer_1" data-name="Layer 1" xmlns="http://www.w3.org/2000/svg" viewBox="0 0 29.5 30.73"><defs><style>.cls-1{fill:#6caa55;}</style></defs><title>Георешетка</title><path class="cls-1" d="M28.23,18.14,28.4,18a3.45,3.45,0,0,0,1.1-2.32,3,3,0,0,0-1-2.1c-.27-.28-.52-.57-.77-.88l-1.57-1.95,1.32-1.54c.24-.27.49-.53.74-.79l.19-.2a3.44,3.44,0,0,0,1.1-2.32,3,3,0,0,0-1-2.09c-.27-.29-.52-.58-.77-.88L25.39,0,23,3c-.24.29-.48.57-.73.84a5,5,0,0,0-.44.51,5.66,5.66,0,0,0-.43-.52c-.27-.29-.53-.58-.77-.88L18.3,0,15.9,3c-.23.29-.47.57-.73.84-.11.12-.21.23-.3.35-.1-.13-.21-.25-.31-.36-.27-.29-.53-.58-.77-.88L11.46,0,9.06,3c-.23.29-.47.57-.73.84a6.53,6.53,0,0,0-.56.69,5.54,5.54,0,0,0-.56-.7c-.27-.29-.53-.58-.77-.88L4.11,0,1.71,3c-.23.29-.47.57-.73.84A2.77,2.77,0,0,0,0,5.87,3.32,3.32,0,0,0,1.07,8.09l.15.16c.33.34.66.69,1,1.06l1.16,1.4-1.63,2c-.24.29-.48.56-.74.84a2.77,2.77,0,0,0-1,2.08,3.32,3.32,0,0,0,1.07,2.22l.12.13c.34.35.68.71,1,1.08l1,1.19-1.46,1.8c-.24.29-.48.57-.74.84A2.77,2.77,0,0,0,0,25a3.32,3.32,0,0,0,1.07,2.22l.15.15c.33.35.66.7,1,1.07l1.91,2.3L6.19,28.3c.25-.28.51-.55.77-.82l.16-.17a4.63,4.63,0,0,0,.68-.92,4.42,4.42,0,0,0,.62.82l.15.15c.33.35.66.7,1,1.07l1.92,2.3,2.09-2.43c.24-.28.51-.55.77-.82l.16-.17a4.16,4.16,0,0,0,.43-.53,3.57,3.57,0,0,0,.36.43l.15.15c.33.35.66.7,1,1.07l1.92,2.3,2.09-2.43c.24-.28.51-.55.77-.82l.16-.17a4.8,4.8,0,0,0,.55-.7,5.17,5.17,0,0,0,.49.6l.16.16c.33.35.66.69,1,1.06l1.91,2.3,2.09-2.43c.25-.28.51-.55.76-.82l.17-.17A3.44,3.44,0,0,0,29.5,25a3,3,0,0,0-1-2.1c-.27-.28-.52-.57-.77-.87l-1.39-1.74L27.47,19C27.72,18.68,28,18.41,28.23,18.14ZM23.36,4.81c.28-.3.55-.6.8-.91l1.23-1.51,1.17,1.45h0c.26.32.54.64.83,1,.47.51.61.75.61,1.07a2,2,0,0,1-.68,1.28l-.19.2c-.27.28-.54.56-.79.85L25.4,9.29l-.78-.94c-.32-.39-.67-.76-1-1.13l-.16-.16a2,2,0,0,1-.66-1.19C22.78,5.51,22.83,5.39,23.36,4.81ZM21.31,8.19a4.8,4.8,0,0,0,.55-.7,5.17,5.17,0,0,0,.49.6l.16.16c.33.35.66.69,1,1.06l1.17,1.4-1.64,2c-.24.29-.48.56-.73.84a6.31,6.31,0,0,0-.44.5c-.14-.18-.28-.35-.43-.52a10.77,10.77,0,0,1-.77-.88l-1.57-1.95,1.32-1.54c.24-.27.49-.53.74-.8ZM14.87,23.26c-.1-.13-.21-.25-.31-.37-.27-.28-.53-.57-.77-.87L12.4,20.28,13.54,19c.24-.28.51-.55.77-.82l.16-.17a5,5,0,0,0,.43-.53c.11.14.22.28.36.43l.12.13c.34.35.68.71,1,1.08l1,1.19-1.46,1.8c-.23.29-.47.57-.73.84C15.06,23,15,23.14,14.87,23.26Zm-.4-15.07a4.16,4.16,0,0,0,.43-.53,3.57,3.57,0,0,0,.36.43l.15.16c.33.34.66.69,1,1.06l1.17,1.4-1.64,2c-.23.29-.47.56-.73.84l-.3.34-.31-.36a10.77,10.77,0,0,1-.77-.88l-1.57-1.95,1.32-1.54c.24-.27.49-.53.74-.79Zm-3,4,1.17,1.45q.41.5.84,1c.47.51.61.75.61,1.08a2.1,2.1,0,0,1-.68,1.28l-.17.17c-.27.29-.55.58-.81.88l-.94,1.08-.78-.94c-.34-.39-.7-.78-1.06-1.16l-.12-.13a1.93,1.93,0,0,1-.66-1.18c0-.36.05-.49.58-1.06.28-.3.54-.6.8-.91Zm6.08,6c-.34-.39-.7-.78-1.06-1.16l-.12-.13a1.93,1.93,0,0,1-.66-1.18c0-.36.05-.49.58-1.06.28-.3.54-.6.8-.91l1.23-1.52,1.16,1.45h0q.41.5.84,1c.47.51.61.75.61,1.08a2.1,2.1,0,0,1-.68,1.28l-.16.16c-.28.3-.56.59-.82.89l-.94,1.08ZM16.27,4.81c.28-.3.54-.6.8-.91L18.3,2.39l1.16,1.45c.27.33.55.64.84,1,.47.51.61.75.61,1.07a2.07,2.07,0,0,1-.69,1.28l-.18.2c-.27.28-.54.56-.79.85l-.94,1.09-.78-.94c-.33-.39-.68-.77-1-1.14l-.14-.15a2,2,0,0,1-.66-1.19C15.69,5.51,15.74,5.39,16.27,4.81Zm-6.84,0c.28-.3.54-.6.8-.91l1.22-1.51,1.17,1.45q.41.48.84,1c.47.51.61.75.61,1.07a2.07,2.07,0,0,1-.69,1.28l-.18.2c-.27.28-.54.56-.79.85l-.94,1.09-.78-.94c-.33-.39-.68-.77-1-1.14l-.14-.15a2,2,0,0,1-.66-1.19C8.85,5.51,8.9,5.39,9.43,4.81ZM7.12,8.19a4.63,4.63,0,0,0,.68-.92,4.42,4.42,0,0,0,.62.82l.15.16c.33.34.66.69,1,1.06l1.17,1.4-1.64,2c-.23.29-.47.56-.73.84a6.53,6.53,0,0,0-.56.69,6.48,6.48,0,0,0-.56-.71,10.77,10.77,0,0,1-.77-.88L4.87,10.72,6.19,9.18c.24-.27.49-.53.74-.8Zm-4.82-1-.14-.15A2,2,0,0,1,1.5,5.87c0-.36.05-.48.58-1.06.28-.3.55-.6.8-.91L4.11,2.39,5.27,3.84q.41.48.84,1c.47.51.61.75.61,1.07A2,2,0,0,1,6,7.15l-.19.2c-.27.28-.54.56-.79.85L4.12,9.29l-.78-.94C3,8,2.66,7.58,2.3,7.21Zm-.14,9.62a1.93,1.93,0,0,1-.66-1.18c0-.36.05-.49.58-1.06.28-.3.54-.6.8-.91l1.23-1.52,1.16,1.45q.41.5.84,1c.47.51.61.75.61,1.08A2,2,0,0,1,6,16.93l-.16.16c-.28.3-.56.59-.82.89l-.94,1.08-.78-.94c-.33-.39-.7-.78-1.06-1.16ZM6,26.27l-.16.17c-.28.29-.56.58-.82.88l-.94,1.09-.78-.94c-.33-.39-.68-.77-1-1.14l-.14-.15A2,2,0,0,1,1.5,25c0-.36.05-.48.58-1.06.28-.3.54-.6.8-.91l1.23-1.51L5.27,23c.27.33.55.64.84.95.47.52.61.76.61,1.08A2,2,0,0,1,6,26.27Zm2.29-3.36a5.72,5.72,0,0,0-.56.7,5.76,5.76,0,0,0-.56-.72c-.27-.28-.53-.57-.77-.87L5.05,20.28,6.19,19c.25-.28.51-.55.77-.83L7.12,18a4.63,4.63,0,0,0,.68-.92,4.78,4.78,0,0,0,.62.82l.12.13c.34.35.68.71,1,1.08l1,1.19-1.46,1.8C8.83,22.36,8.59,22.64,8.33,22.91Zm5.06,3.36-.17.17c-.27.29-.55.58-.81.88l-.94,1.09-.78-.94c-.33-.39-.68-.77-1-1.14l-.14-.15A2,2,0,0,1,8.85,25c0-.36.05-.48.58-1.06.28-.3.54-.6.8-.91l1.22-1.51L12.62,23c.27.32.55.64.84.95.47.52.61.76.61,1.08A2.1,2.1,0,0,1,13.39,26.27Zm6.84,0-.16.17c-.28.29-.56.58-.82.88l-.94,1.09-.78-.94c-.33-.39-.68-.77-1-1.14l-.14-.15A2,2,0,0,1,15.69,25c0-.36.05-.48.58-1.06.28-.3.54-.6.8-.91l1.23-1.51L19.46,23c.27.33.55.64.84.95.47.52.61.76.61,1.08A2.1,2.1,0,0,1,20.23,26.27Zm2-3.36a5,5,0,0,0-.44.51c-.14-.19-.28-.36-.43-.53s-.53-.57-.77-.87l-1.39-1.74L20.38,19c.24-.28.51-.55.77-.83l.16-.16a4.38,4.38,0,0,0,.55-.71,5.24,5.24,0,0,0,.49.61l.13.14c.34.35.68.7,1,1.07l1,1.19L23,22.07C22.76,22.36,22.52,22.64,22.27,22.91Zm4.29.05c.26.33.54.64.83.95.47.52.61.76.61,1.08a2,2,0,0,1-.68,1.28l-.17.17c-.27.29-.55.58-.81.88l-.94,1.09-.78-.94c-.32-.39-.67-.76-1-1.13l-.16-.16A2,2,0,0,1,22.78,25c0-.36,0-.48.58-1.06.28-.3.55-.6.8-.91l1.23-1.51L26.56,23Zm.59-5.86c-.27.29-.55.58-.81.88l-.94,1.08-.78-.94c-.33-.39-.69-.77-1.05-1.15l-.13-.14a2,2,0,0,1-.66-1.18c0-.36,0-.49.58-1.06.28-.3.55-.6.8-.91l1.23-1.52,1.17,1.45h0c.26.33.54.65.83,1,.47.51.61.75.61,1.08a2,2,0,0,1-.68,1.28Z" transform="translate(0 0)"/></svg>