<svg id="Layer_1" data-name="Layer 1" xmlns="http://www.w3.org/2000/svg" viewBox="0 0 31.14 31.5"><defs><style>.cls-1{fill:none;stroke:#6caa55;stroke-miterlimit:10;stroke-width:1.5px;}.cls-2{fill:#cee2b1;}.cls-3{fill:#6caa55;}.cls-4{opacity:0.4;}</style></defs><title>Геомембрана</title><path class="cls-1" d="M9.94,7.54" transform="translate(0 0)"/><path class="cls-1" d="M30.44,7.54" transform="translate(0 0)"/><path class="cls-1" d="M9.94,13" transform="translate(0 0)"/><path class="cls-1" d="M30.44,13" transform="translate(0 0)"/><path class="cls-1" d="M9.94,18.64" transform="translate(0 0)"/><path class="cls-1" d="M30.44,18.64" transform="translate(0 0)"/><path class="cls-1" d="M9.94,24.14" transform="translate(0 0)"/><path class="cls-1" d="M30.44,24.14" transform="translate(0 0)"/><path class="cls-1" d="M14.94,1.83" transform="translate(0 0)"/><path class="cls-1" d="M14.94,29.75" transform="translate(0 0)"/><path class="cls-1" d="M25.4,1.83" transform="translate(0 0)"/><path class="cls-1" d="M25.4,29.75" transform="translate(0 0)"/><path class="cls-2" d="M9.6,3.2V28.59c0,1.19-2,2.16-4.43,2.16s-4.42-1-4.42-2.16V3.2" transform="translate(0 0)"/><ellipse class="cls-2" cx="5.17" cy="2.91" rx="4.42" ry="2.16"/><path class="cls-3" d="M31.14,2.08h-21C9.51.85,7.6,0,5.17,0,2.22,0,0,1.25,0,2.91a1.35,1.35,0,0,0,.05.29H0V28.59c0,1.66,2.22,2.91,5.17,2.91,2.41,0,4.31-.84,4.94-2.05h21Zm-26-.58c2,0,3.36.68,3.62,1.23v.36c-.26.55-1.63,1.23-3.62,1.23C3,4.32,1.5,3.47,1.5,2.91S3,1.5,5.17,1.5Zm0,28.5C3,30,1.5,29.15,1.5,28.59V5a7.72,7.72,0,0,0,3.67.82A7.77,7.77,0,0,0,8.85,5V28.59C8.85,29.15,7.38,30,5.17,30ZM29.64,28H10.35V3.58H29.64Z" transform="translate(0 0)"/><ellipse class="cls-3" cx="5.17" cy="2.91" rx="2.26" ry="0.75"/><g class="cls-4"><circle class="cls-3" cx="12.92" cy="6.96" r="0.99"/><circle class="cls-3" cx="16.42" cy="6.96" r="0.99"/><circle class="cls-3" cx="19.92" cy="6.96" r="0.99"/><circle class="cls-3" cx="23.42" cy="6.96" r="0.99"/><circle class="cls-3" cx="26.92" cy="6.96" r="0.99"/></g><g class="cls-4"><circle class="cls-3" cx="12.92" cy="10.46" r="0.99"/><circle class="cls-3" cx="16.42" cy="10.46" r="0.99"/><circle class="cls-3" cx="19.92" cy="10.46" r="0.99"/><circle class="cls-3" cx="23.42" cy="10.46" r="0.99"/><circle class="cls-3" cx="26.92" cy="10.46" r="0.99"/></g><g class="cls-4"><circle class="cls-3" cx="12.92" cy="13.96" r="0.99"/><circle class="cls-3" cx="16.42" cy="13.96" r="0.99"/><circle class="cls-3" cx="19.92" cy="13.96" r="0.99"/><circle class="cls-3" cx="23.42" cy="13.96" r="0.99"/><circle class="cls-3" cx="26.92" cy="13.96" r="0.99"/></g><g class="cls-4"><circle class="cls-3" cx="12.92" cy="17.46" r="0.99"/><circle class="cls-3" cx="16.42" cy="17.46" r="0.99"/><circle class="cls-3" cx="19.92" cy="17.46" r="0.99"/><circle class="cls-3" cx="23.42" cy="17.46" r="0.99"/><circle class="cls-3" cx="26.92" cy="17.46" r="0.99"/></g><g class="cls-4"><circle class="cls-3" cx="12.92" cy="20.96" r="0.99"/><circle class="cls-3" cx="16.42" cy="20.96" r="0.99"/><circle class="cls-3" cx="19.92" cy="20.96" r="0.99"/><circle class="cls-3" cx="23.42" cy="20.96" r="0.99"/><circle class="cls-3" cx="26.92" cy="20.96" r="0.99"/></g><g class="cls-4"><circle class="cls-3" cx="12.92" cy="24.46" r="0.99"/><circle class="cls-3" cx="16.42" cy="24.46" r="0.99"/><circle class="cls-3" cx="19.92" cy="24.46" r="0.99"/><circle class="cls-3" cx="23.42" cy="24.46" r="0.99"/><circle class="cls-3" cx="26.92" cy="24.46" r="0.99"/></g></svg>