<svg id="Layer_1" data-name="Layer 1" xmlns="http://www.w3.org/2000/svg" viewBox="0 0 31.14 31.5"><defs><style>.cls-1{fill:none;stroke:#6caa55;stroke-miterlimit:10;stroke-width:1.5px;}.cls-2{fill:#cee2b1;}.cls-3{fill:#6caa55;}</style></defs><title>Геотекстиль</title><path class="cls-1" d="M9.94,7.54"/><polyline class="cls-2" points="8.79 1.83 30.39 1.83 30.39 29.7 9.04 29.7"/><path class="cls-1" d="M30.44,7.54"/><path class="cls-1" d="M9.94,13"/><path class="cls-1" d="M30.44,13"/><path class="cls-1" d="M9.94,18.64"/><path class="cls-1" d="M30.44,18.64"/><path class="cls-1" d="M9.94,24.14"/><path class="cls-1" d="M30.44,24.14"/><path class="cls-1" d="M14.94,1.83"/><path class="cls-1" d="M14.94,29.75"/><path class="cls-1" d="M25.4,1.83"/><path class="cls-1" d="M25.4,29.75"/><path class="cls-2" d="M9.6,3.2V28.59c0,1.19-2,2.16-4.43,2.16s-4.42-1-4.42-2.16V3.2"/><ellipse class="cls-2" cx="5.17" cy="2.91" rx="4.42" ry="2.16"/><path class="cls-3" d="M31.14,1.08H9.22A7.11,7.11,0,0,0,5.17,0C2.22,0,0,1.25,0,2.91a1.35,1.35,0,0,0,.05.29H0V28.59c0,1.66,2.22,2.91,5.17,2.91a7.18,7.18,0,0,0,4-1.05h22Zm-26,.42c2.21,0,3.68.85,3.68,1.41S7.38,4.32,5.17,4.32,1.5,3.47,1.5,2.91,3,1.5,5.17,1.5Zm0,28.5C3,30,1.5,29.15,1.5,28.59V5a7.72,7.72,0,0,0,3.67.82A7.77,7.77,0,0,0,8.85,5V28.59C8.85,29.15,7.38,30,5.17,30ZM29.64,29H10.29a2.25,2.25,0,0,0,.06-.36V3.2h0a1.35,1.35,0,0,0,0-.29,1.91,1.91,0,0,0-.06-.33H29.64Z"/><ellipse class="cls-3" cx="5.17" cy="2.91" rx="2.26" ry="0.75"/></svg>