<svg xmlns="http://www.w3.org/2000/svg" viewBox="0 0 35.7 50"><linearGradient id="a" gradientUnits="userSpaceOnUse" x1="21.77" y1="39.5" x2="27.51" y2="39.5" gradientTransform="matrix(1 0 0 -1 0 52)"><stop offset="0" stop-color="#a1bc4c"/><stop offset="1" stop-color="#7aa553"/></linearGradient><path d="M24.1 6.3c-2-2-4.2-4.1-6.3-6.3-6.6 14.3 2.6 17.7 7.1 25 2.5-4.1 3.4-9.4-.8-18.7z" fill="url(#a)"/><linearGradient id="b" gradientUnits="userSpaceOnUse" x1="15.56" y1="33.965" x2="35.68" y2="33.965" gradientTransform="matrix(1 0 0 -1 0 52)"><stop offset=".17" stop-color="#2ca55b"/><stop offset=".6" stop-color="#83c550"/></linearGradient><path d="M28.8 11.1c4.8 5.4 6.8 9.9 6.9 13.9" fill="url(#b)"/><linearGradient id="c" gradientUnits="userSpaceOnUse" x1="32.88" y1="17.509" x2="10.92" y2="11.769" gradientTransform="matrix(1 0 0 -1 0 52)"><stop offset="0" stop-color="#a1bc4c"/><stop offset="1" stop-color="#7aa553"/></linearGradient><path d="M24.9 25c-4.4 7.3-13.6 10.7-7.1 25 2.1-2.2 4.2-4.3 6.3-6.3 4.2-9.2 3.3-14.6.8-18.7z" fill="url(#c)"/><linearGradient id="d" gradientUnits="userSpaceOnUse" x1="15.54" y1="27" x2="35.69" y2="27" gradientTransform="matrix(1 0 0 -1 0 52)"><stop offset=".17" stop-color="#2ca55b"/><stop offset=".6" stop-color="#83c550"/></linearGradient><path d="M28.8 11.1c-1.4-1.6-3-3.1-4.7-4.7 4.2 9.2 3.3 14.6.8 18.7 2.5 4.1 3.4 9.5-.8 18.7l4.7-4.7c4.8-5.4 6.8-9.9 6.9-13.9-.2-4.2-2.2-8.7-6.9-14.1z" fill="url(#d)"/><linearGradient id="e" gradientUnits="userSpaceOnUse" x1="30.22" y1="27.124" x2="40.63" y2="27.334" gradientTransform="matrix(1 0 0 -1 0 52)"><stop offset="0" stop-color="#b1c74a"/><stop offset="1" stop-color="#dce4aa"/></linearGradient><path d="M28.8 11.1c-1.4-1.6-3-3.1-4.7-4.7 4.2 9.2 3.3 14.6.8 18.7 2.5 4.1 3.4 9.5-.8 18.7l4.7-4.7c4.8-5.4 6.8-9.9 6.9-13.9-.2-4.2-2.2-8.7-6.9-14.1z" fill="url(#e)"/><linearGradient id="f" gradientUnits="userSpaceOnUse" x1="15.541" y1="13.982" x2="7.961" y2="17.172" gradientTransform="matrix(1 0 0 -1 0 52)"><stop offset="0" stop-color="#487bbf"/><stop offset="1" stop-color="#435a91"/></linearGradient><path d="M11.6 43.7c2 2 4.2 4.1 6.3 6.3 6.6-14.3-2.6-17.7-7.1-25-2.5 4.1-3.5 9.5.8 18.7z" fill="url(#f)"/><linearGradient id="g" gradientUnits="userSpaceOnUse" x1="0" y1="33.965" x2="20.12" y2="33.965" gradientTransform="matrix(1 0 0 -1 0 52)"><stop offset="0" stop-color="#487bbf"/><stop offset="1" stop-color="#4758a5"/></linearGradient><path d="M0 25c.1-4 2.1-8.5 6.9-13.9" fill="url(#g)"/><linearGradient id="h" gradientUnits="userSpaceOnUse" x1="0" y1="27" x2="20.14" y2="27" gradientTransform="matrix(1 0 0 -1 0 52)"><stop offset="0" stop-color="#4d61ab"/><stop offset="1" stop-color="#68cef8"/></linearGradient><path d="M10.8 25c-2.5-4.1-3.4-9.4.8-18.7C9.9 8 8.4 9.5 6.9 11.1 2.1 16.5.1 21 0 25c.1 4 2.1 8.5 6.9 13.9 1.5 1.5 3 3.1 4.7 4.7-4.3-9.1-3.3-14.5-.8-18.6z" fill="url(#h)"/><linearGradient id="i" gradientUnits="userSpaceOnUse" x1=".261" y1="34.884" x2="10.031" y2="31.694" gradientTransform="matrix(1 0 0 -1 0 52)"><stop offset="0" stop-color="#487bbf"/><stop offset="1" stop-color="#41619d"/></linearGradient><path d="M10.8 25c4.4-7.3 13.6-10.7 7.1-25-2.1 2.2-4.2 4.3-6.3 6.3C9.9 8 8.4 9.5 6.9 11.1 2.1 16.5.1 21 0 25c.1 4 2.1 8.5 6.9 13.9 1.5 1.5 3 3.1 4.7 4.7-4.3-9.1-3.3-14.5-.8-18.6z" fill="url(#i)"/></svg>