<svg xmlns="http://www.w3.org/2000/svg" viewBox="0 0 24.96 25.52"><path fill="currentColor" d="M6.41 22.15a.94.94 0 11-.9.94.92.92 0 01.9-.94m0-1.5a2.44 2.44 0 102.4 2.44 2.42 2.42 0 00-2.4-2.44zm9.45 1.5a.94.94 0 11-.9.94.92.92 0 01.9-.94m0-1.5a2.44 2.44 0 102.4 2.44 2.42 2.42 0 00-2.4-2.44zm5.52-18.88l-1.92 5.55h-1.11a8 8 0 00-15.85 0H.75a.76.76 0 00-.63.33.78.78 0 00-.06.71l4.3 10a.74.74 0 00.69.46h12.4a.74.74 0 00.73-.57l2.53-10 1.74-5H25V1.77zm-4.51 15.58H5.54L1.89 8.82h.63a8 8 0 0015.81 0H19z"/><path fill="#445c92" d="M9.51 11.75L5.35 8.16l.98-1.13 3.1 2.67 5.05-5.04 1.06 1.06-6.03 6.03z"/></svg>