<svg xmlns="http://www.w3.org/2000/svg" viewBox="0 0 24.96 23.75"><path fill="currentColor" d="M21.38 0l-1.93 5.54H.75c-.25 0-.49.13-.63.34s-.16.48-.06.71l4.3 10.03c.12.28.39.45.69.45h12.41c.34 0 .64-.23.73-.57l2.52-10 1.74-5h2.51V0h-3.58zm-4.51 15.58H5.54L1.89 7.04h17.14l-2.16 8.54zm-10.46 3.3c-1.33 0-2.4 1.09-2.4 2.44s1.08 2.44 2.4 2.44c1.33 0 2.4-1.09 2.4-2.44s-1.07-2.44-2.4-2.44zm0 3.37c-.5 0-.9-.42-.9-.94s.4-.94.9-.94.9.42.9.94-.4.94-.9.94zm9.45-3.37c-1.33 0-2.4 1.09-2.4 2.44s1.08 2.44 2.4 2.44c1.33 0 2.4-1.09 2.4-2.44s-1.07-2.44-2.4-2.44zm0 3.37c-.5 0-.9-.42-.9-.94s.4-.94.9-.94.9.42.9.94-.4.94-.9.94z"/></svg>