<svg xmlns="http://www.w3.org/2000/svg" viewBox="0 0 24.5 24.5"><path fill="currentColor" d="M12.25 24.5A12.25 12.25 0 1124.5 12.25 12.27 12.27 0 0112.25 24.5zm0-23A10.75 10.75 0 1023 12.25 10.76 10.76 0 0012.25 1.5z"/><path fill="currentColor" d="M11.5 3.37H13v1.38h-1.5zm0 16.56H13v1.38h-1.5zm8.34-8.34h1.38v1.5h-1.38zm-16.56 0h1.38v1.5H3.28zm13.8-5.142l.975-.975 1.061 1.06-.976.976zM5.387 18.151l.975-.975 1.061 1.06-.976.976zm12.085-.24l.988-1.128 1.038.908-.987 1.13zM5.007 6.996l.987-1.13 1.039.91-.988 1.128zM15.57 16.05L11.5 12.6V7.62H13v4.28l3.54 3.01-.97 1.14z"/></svg>