<svg xmlns="http://www.w3.org/2000/svg" viewBox="0 0 69.06 80.03"><path fill="currentColor" d="M47.56 44.9a19.84 19.84 0 001.61-2.21l3.69 1.36 3-8.15-3.78-1.39a19.27 19.27 0 00.14-2.39v-.94l3.94-1-2.2-8.4-4 1.06a19.92 19.92 0 00-2.36-3.48L50.13 16l-6.87-5.31-2.62 3.39a19.45 19.45 0 00-3.92-1.32v-4.3H28v4.3A19.84 19.84 0 0024.38 14l-2.56-3.42-7 5.2 2.53 3.38a20 20 0 00-1.56 2l-3.93-1.45-3 8.15 3.84 1.42a19.49 19.49 0 00-.21 2.84v.47l-3.92 1 2.2 8.4 3.82-1A19.27 19.27 0 0017 44.67l-2.39 3.1 6.88 5.3 2.34-3A20 20 0 0028 51.48v3.82h8.68v-3.82a20.18 20.18 0 003.93-1.32L43 53.23 49.9 48zm-4.21 5.53l-2.1-2.81-.75.38a17.41 17.41 0 01-5 1.66l-.83.15v3.49H30v-3.48l-.82-.15A17.64 17.64 0 0124 47.89l-.74-.4-2.14 2.78-3.71-2.86 2.17-2.81-.52-.6a17.83 17.83 0 01-2.95-4.56l-.35-.77-3.51.92L11.07 35l3.56-.93-.05-.82v-1.17a18.62 18.62 0 01.31-3.31L15 28l-3.54-1.3 1.62-4.4 3.59 1.33.43-.71a17.72 17.72 0 012.31-3l.58-.62-2.33-3.11 3.75-2.81 2.35 3.14.74-.36a18.08 18.08 0 014.71-1.55l.82-.14v-4h4.68v4l.83.14a17.81 17.81 0 014.93 1.66l.74.38 2.4-3.1 3.7 2.86L45 19.43l.57.62a18.14 18.14 0 013 4.36l.35.75 3.68-1 1.19 4.53-3.62 1 .07.84c.05.59.07 1.12.07 1.61A17.77 17.77 0 0150 35l-.13.81 3.43 1.27-1.62 4.39-3.38-1.25-.42.74a17.3 17.3 0 01-2.34 3.2l-.56.62 2.13 2.83z"/><path fill="currentColor" d="M32.38 18.05a13.83 13.83 0 1013.83 13.83 13.85 13.85 0 00-13.83-13.83zm-1 25.61v-8.22a.76.76 0 010-.15l.14-.8-.75-.3A4.37 4.37 0 0128 30.11 4.45 4.45 0 0129.23 27v4.08h6.3V27a4.41 4.41 0 011.25 3.08A4.36 4.36 0 0134 34.19l-.77.31.16.81v8.35c-.34 0-.69.05-1 .05s-.7-.02-1.04-.05zm4.07-.36v-7.56a6.41 6.41 0 00-.49-11.51l-1.4-.6v5.48h-2.3v-5.48l-1.4.6A6.43 6.43 0 0026 30.11a6.37 6.37 0 003.37 5.63v7.56a11.83 11.83 0 116.07 0z"/><path fill="currentColor" d="M69.06 3.11H58.13l-3-3.11H0v72.85h5.1v4.28h42.4V80l4.5-3.45L56.56 80v-2.9h12.5zm-7.64 6.32h-5.71V3.48zM2 2h51.71v8.43a1 1 0 001 1h8.06v59.42h-6.21v-4a6.75 6.75 0 10-9.06.15v3.86H2zm47.44 64a4.76 4.76 0 112.51.71 4.74 4.74 0 01-2.51-.71zM7.1 75.13v-2.28h40.4v2.28zm45.35-.78h-.84L49.5 76v-7.8a6.8 6.8 0 002.45.47 6.72 6.72 0 002.61-.52V76zm14.61.78h-10.5v-2.28h8.21V10l-4.72-4.89h7z"/><path fill="currentColor" d="M6.1 58.74h12.64v2H6.1zm0 3.7h20.89v2H6.1z"/></svg>