<svg xmlns="http://www.w3.org/2000/svg" viewBox="0 0 30.05 29.87"><path d="M0 0v29.87h30.05V0zm28.55 5.71h-4V1.5h4zm-15.68 11.1v-4.1h4.32v4.1zm4.32 1.5v4h-4.32v-4zm-5.82-1.5H7v-4.1h4.33zm1.5-5.6v-4h4.32v4zm5.82 1.5H23v4.1h-4.31zm0-1.5v-4H23v4zm0-5.5V1.5H23v4.21zm-1.5 0h-4.32V1.5h4.32zm-5.82 0H7V1.5h4.33zm0 1.5v4H7v-4zm-5.83 4h-4v-4h4zm0 1.5v4.1h-4v-4.1zm0 5.6v4h-4v-4zm1.5 0h4.33v4H7zm4.33 5.5v4.56H7v-4.56zm1.5 0h4.32v4.56h-4.32zm5.82 0H23v4.56h-4.31zm0-1.5v-4H23v4zm5.82-4h4v4h-4zm0-1.5v-4.1h4v4.1zm0-5.6v-4h4v4zM5.54 1.5v4.21h-4V1.5zm-4 22.31h4v4.56h-4zm23 4.56v-4.56h4v4.56z" fill="#6caa55"/></svg>