<svg xmlns="http://www.w3.org/2000/svg" viewBox="0 0 29.5 30.73"><path d="M28.23 18.14l.17-.14a3.45 3.45 0 001.1-2.32 3 3 0 00-1-2.1 13.1 13.1 0 01-.77-.88l-1.57-1.95 1.32-1.54c.24-.27.49-.53.74-.79l.19-.2a3.44 3.44 0 001.1-2.32 3 3 0 00-1-2.09c-.27-.29-.52-.58-.77-.88L25.39 0 23 3c-.24.29-.48.57-.73.84a5 5 0 00-.44.51 5.66 5.66 0 00-.43-.52c-.27-.29-.53-.58-.77-.88L18.3 0l-2.4 3c-.23.29-.47.57-.73.84-.11.12-.21.23-.3.35-.1-.13-.21-.25-.31-.36-.27-.29-.53-.58-.77-.88L11.46 0l-2.4 3c-.23.29-.47.57-.73.84a6.53 6.53 0 00-.56.69 5.54 5.54 0 00-.56-.7c-.27-.29-.53-.58-.77-.88L4.11 0l-2.4 3c-.23.29-.47.57-.73.84A2.77 2.77 0 000 5.87a3.32 3.32 0 001.07 2.22l.15.16c.33.34.66.69 1 1.06l1.16 1.4-1.63 2c-.24.29-.48.56-.74.84a2.77 2.77 0 00-1 2.08 3.32 3.32 0 001.07 2.22l.12.13c.34.35.68.71 1 1.08l1 1.19-1.46 1.8c-.24.29-.48.57-.74.84A2.77 2.77 0 000 25a3.32 3.32 0 001.07 2.22l.15.15c.33.35.66.7 1 1.07l1.91 2.3 2.06-2.44c.25-.28.51-.55.77-.82l.16-.17a4.63 4.63 0 00.68-.92 4.42 4.42 0 00.62.82l.15.15c.33.35.66.7 1 1.07l1.92 2.3 2.09-2.43c.24-.28.51-.55.77-.82l.16-.17a4.16 4.16 0 00.43-.53 3.57 3.57 0 00.36.43l.15.15c.33.35.66.7 1 1.07l1.92 2.3 2.09-2.43c.24-.28.51-.55.77-.82l.16-.17a4.8 4.8 0 00.55-.7 5.17 5.17 0 00.49.6l.16.16c.33.35.66.69 1 1.06l1.91 2.3 2.09-2.43c.25-.28.51-.55.76-.82l.17-.17A3.44 3.44 0 0029.5 25a3 3 0 00-1-2.1c-.27-.28-.52-.57-.77-.87l-1.39-1.74L27.47 19c.25-.32.53-.59.76-.86zM23.36 4.81c.28-.3.55-.6.8-.91l1.23-1.51 1.17 1.45c.26.32.54.64.83 1 .47.51.61.75.61 1.07a2 2 0 01-.68 1.28l-.19.2c-.27.28-.54.56-.79.85l-.94 1.05-.78-.94c-.32-.39-.67-.76-1-1.13l-.16-.16a2 2 0 01-.66-1.19c-.02-.36.03-.48.56-1.06zm-2.05 3.38a4.8 4.8 0 00.55-.7 5.17 5.17 0 00.49.6l.16.16c.33.35.66.69 1 1.06l1.17 1.4-1.64 2c-.24.29-.48.56-.73.84a6.31 6.31 0 00-.44.5c-.14-.18-.28-.35-.43-.52a10.77 10.77 0 01-.77-.88L19.1 10.7l1.32-1.54c.24-.27.49-.53.74-.8zm-6.44 15.07c-.1-.13-.21-.25-.31-.37-.27-.28-.53-.57-.77-.87l-1.39-1.74L13.54 19c.24-.28.51-.55.77-.82l.16-.17a5 5 0 00.43-.53c.11.14.22.28.36.43l.12.13c.34.35.68.71 1 1.08l1 1.19-1.46 1.8c-.23.29-.47.57-.73.84-.13.05-.19.19-.32.31zm-.4-15.07a4.16 4.16 0 00.43-.53 3.57 3.57 0 00.36.43l.15.16c.33.34.66.69 1 1.06l1.17 1.4-1.64 2c-.23.29-.47.56-.73.84l-.3.34-.31-.36a10.77 10.77 0 01-.77-.88l-1.57-1.95 1.32-1.54c.24-.27.49-.53.74-.79zm-3 4l1.17 1.45q.41.5.84 1c.47.51.61.75.61 1.08a2.1 2.1 0 01-.68 1.28l-.17.17c-.27.29-.55.58-.81.88l-.94 1.08-.78-.94c-.34-.39-.7-.78-1.06-1.16l-.12-.13a1.93 1.93 0 01-.66-1.18c0-.36.05-.49.58-1.06.28-.3.54-.6.8-.91zm6.08 6c-.34-.39-.7-.78-1.06-1.16l-.12-.13a1.93 1.93 0 01-.66-1.18c0-.36.05-.49.58-1.06.28-.3.54-.6.8-.91l1.23-1.52 1.16 1.45q.41.5.84 1c.47.51.61.75.61 1.08a2.1 2.1 0 01-.68 1.28l-.16.16c-.28.3-.56.59-.82.89l-.94 1.08zM16.27 4.81c.28-.3.54-.6.8-.91l1.23-1.51 1.16 1.45c.27.33.55.64.84 1 .47.51.61.75.61 1.07a2.07 2.07 0 01-.69 1.28l-.18.2c-.27.28-.54.56-.79.85l-.94 1.09-.78-.94c-.33-.39-.68-.77-1-1.14l-.14-.15a2 2 0 01-.66-1.19c-.04-.4.01-.52.54-1.1zm-6.84 0c.28-.3.54-.6.8-.91l1.22-1.51 1.17 1.45q.41.48.84 1c.47.51.61.75.61 1.07a2.07 2.07 0 01-.69 1.28l-.18.2c-.27.28-.54.56-.79.85l-.94 1.09-.78-.94c-.33-.39-.68-.77-1-1.14l-.14-.15a2 2 0 01-.66-1.19c-.04-.4.01-.52.54-1.1zM7.12 8.19a4.63 4.63 0 00.68-.92 4.42 4.42 0 00.62.82l.15.16c.33.34.66.69 1 1.06l1.17 1.4-1.64 2c-.23.29-.47.56-.73.84a6.53 6.53 0 00-.56.69 6.48 6.48 0 00-.56-.71 10.77 10.77 0 01-.77-.88l-1.61-1.93 1.32-1.54c.24-.27.49-.53.74-.8zm-4.82-1l-.14-.15a2 2 0 01-.66-1.17c0-.36.05-.48.58-1.06.28-.3.55-.6.8-.91l1.23-1.51 1.16 1.45q.41.48.84 1c.47.51.61.75.61 1.07A2 2 0 016 7.15l-.19.2c-.27.28-.54.56-.79.85l-.9 1.09-.78-.94C3 8 2.66 7.58 2.3 7.21zm-.14 9.62a1.93 1.93 0 01-.66-1.18c0-.36.05-.49.58-1.06.28-.3.54-.6.8-.91l1.23-1.52 1.16 1.45q.41.5.84 1c.47.51.61.75.61 1.08A2 2 0 016 16.93l-.16.16c-.28.3-.56.59-.82.89l-.94 1.08-.78-.94c-.33-.39-.7-.78-1.06-1.16zM6 26.27l-.16.17c-.28.29-.56.58-.82.88l-.94 1.09-.78-.94c-.33-.39-.68-.77-1-1.14l-.14-.15A2 2 0 011.5 25c0-.36.05-.48.58-1.06.28-.3.54-.6.8-.91l1.23-1.51L5.27 23c.27.33.55.64.84.95.47.52.61.76.61 1.08A2 2 0 016 26.27zm2.29-3.36a5.72 5.72 0 00-.56.7 5.76 5.76 0 00-.56-.72c-.27-.28-.53-.57-.77-.87l-1.35-1.74L6.19 19c.25-.28.51-.55.77-.83l.16-.17a4.63 4.63 0 00.68-.92 4.78 4.78 0 00.62.82l.12.13c.34.35.68.71 1 1.08l1 1.19-1.46 1.8c-.25.26-.49.54-.75.81zm5.06 3.36l-.17.17c-.27.29-.55.58-.81.88l-.94 1.09-.78-.94c-.33-.39-.68-.77-1-1.14l-.14-.15A2 2 0 018.85 25c0-.36.05-.48.58-1.06.28-.3.54-.6.8-.91l1.22-1.51L12.62 23c.27.32.55.64.84.95.47.52.61.76.61 1.08a2.1 2.1 0 01-.68 1.24zm6.84 0l-.16.17c-.28.29-.56.58-.82.88l-.94 1.09-.78-.94c-.33-.39-.68-.77-1-1.14l-.14-.15a2 2 0 01-.66-1.18c0-.36.05-.48.58-1.06.28-.3.54-.6.8-.91l1.23-1.51L19.46 23c.27.33.55.64.84.95.47.52.61.76.61 1.08a2.1 2.1 0 01-.68 1.24zm2-3.36a5 5 0 00-.44.51c-.14-.19-.28-.36-.43-.53s-.53-.57-.77-.87l-1.39-1.74L20.38 19c.24-.28.51-.55.77-.83l.16-.16a4.38 4.38 0 00.55-.71 5.24 5.24 0 00.49.61l.13.14c.34.35.68.7 1 1.07l1 1.19L23 22.07c-.24.29-.48.57-.73.84zm4.29.05c.26.33.54.64.83.95.47.52.61.76.61 1.08a2 2 0 01-.68 1.28l-.17.17c-.27.29-.55.58-.81.88l-.94 1.09-.78-.94c-.32-.39-.67-.76-1-1.13l-.16-.16a2 2 0 01-.6-1.18c0-.36 0-.48.58-1.06.28-.3.55-.6.8-.91l1.23-1.51L26.56 23zm.59-5.86c-.27.29-.55.58-.81.88l-.94 1.08-.78-.94c-.33-.39-.69-.77-1.05-1.15l-.13-.14a2 2 0 01-.66-1.18c0-.36 0-.49.58-1.06.28-.3.55-.6.8-.91l1.23-1.52 1.17 1.45c.26.33.54.65.83 1 .47.51.61.75.61 1.08a2 2 0 01-.68 1.28z" fill="#6caa55"/></svg>