<svg xmlns="http://www.w3.org/2000/svg" viewBox="0 0 31.14 31.5"><path class="cls-2" d="M8.79 1.83h21.6V29.7H9.04"/><path class="cls-2" d="M9.6 3.2v25.39c0 1.19-2 2.16-4.43 2.16s-4.42-1-4.42-2.16V3.2"/><ellipse class="cls-2" cx="5.17" cy="2.91" rx="4.42" ry="2.16"/><path class="cls-3" d="M31.14 1.08H9.22A7.11 7.11 0 005.17 0C2.22 0 0 1.25 0 2.91a1.35 1.35 0 00.05.29H0v25.39c0 1.66 2.22 2.91 5.17 2.91a7.18 7.18 0 004-1.05h22zm-26 .42c2.21 0 3.68.85 3.68 1.41S7.38 4.32 5.17 4.32 1.5 3.47 1.5 2.91 3 1.5 5.17 1.5zm0 28.5C3 30 1.5 29.15 1.5 28.59V5a7.72 7.72 0 003.67.82A7.77 7.77 0 008.85 5v23.59c0 .56-1.47 1.41-3.68 1.41zm24.5-1H10.29a2.25 2.25 0 00.06-.36V3.2a1.35 1.35 0 000-.29 1.91 1.91 0 00-.06-.33h19.35z"/><ellipse class="cls-3" cx="5.17" cy="2.91" rx="2.26" ry=".75"/></svg>