<svg xmlns="http://www.w3.org/2000/svg" viewBox="0 0 16 16"><path fill="currentColor" d="M7.6 10.3c-1-.2-1.8-.9-1.9-1.9L4.5 7.2c0 .2-.1.5-.1.8 0 2 1.6 3.6 3.6 3.6.3 0 .6 0 .8-.1l-1.2-1.2zm7.9-1.6c.1-.1.2-.3.3-.4L16 8l-.2-.4s-.2-.3-.3-.4c-.4-.5-1.3-1.7-2.6-2.8-1.6-1.3-3.3-2-4.9-2-1.2 0-2.4.4-3.6 1.1L.9 0 0 .9 15.1 16l.9-.9-3.4-3.4c1.4-1.1 2.5-2.4 2.9-3zm-5.5.4l-.8-.8V8c0-.7-.5-1.2-1.2-1.2h-.3L6.9 6c.3-.2.7-.3 1.1-.3 1.3 0 2.3 1 2.3 2.3 0 .4-.1.8-.3 1.1zm.9.9c.4-.6.6-1.3.6-2 0-2-1.6-3.6-3.6-3.6-.7 0-1.4.2-2 .6l-.6-.6c.9-.4 1.8-.7 2.7-.7 2.1 0 4.3 1.4 6.5 4.3-.5.6-1.4 1.8-2.8 2.8l-.8-.8z"/><path fill="currentColor" d="M9.4 12.1c-.5.1-.9.2-1.4.2-2.1 0-4.3-1.4-6.5-4.3.3-.4.9-1.2 1.8-2l-.9-.9C1.5 6 .8 6.8.5 7.3c-.1.1-.2.3-.3.3L0 8l.2.4s.2.3.3.4c.4.5 1.3 1.7 2.6 2.8 1.6 1.3 3.3 2 4.9 2 .8 0 1.6-.2 2.4-.5l-1-1z"/></svg>