<svg xmlns="http://www.w3.org/2000/svg" viewBox="0 0 20 20"><path d="M10 0C4.5 0 0 4.5 0 10s4.5 10 10 10 10-4.5 10-10S15.5 0 10 0zm2.1 15.5c-.5.2-.9.4-1.2.5-.3.1-.7.2-1.1.2-.6 0-1.1-.2-1.5-.5-.3-.3-.5-.7-.5-1.2v-.6c0-.2.1-.4.1-.6l.7-2.3c.1-.2.1-.4.1-.6 0-.2.1-.4.1-.5 0-.3-.1-.5-.2-.6-.1-.1-.3-.2-.6-.2-.2 0-.3 0-.5.1-.2 0-.4.1-.5.1l.2-.7c.4-.1.8-.3 1.2-.4.4-.1.7-.2 1.1-.2.6 0 1.1.2 1.4.4.3.3.5.7.5 1.2v.5c0 .2-.1.5-.1.7l-.6 2.3c-.1.2-.1.4-.1.6 0 .2-.1.4-.1.5 0 .3.1.5.2.6 0 .2.3.2.6.2.2 0 .3 0 .5-.1s.3-.1.4-.1l-.1.7zM12 6.3c-.3.3-.7.4-1.1.4-.4 0-.8-.1-1.1-.4-.3-.3-.4-.6-.4-1s.2-.7.5-1c.3-.3.7-.4 1.1-.4.4 0 .8.1 1.1.4.3.3.4.6.4 1-.1.4-.2.7-.5 1z" fill="currentColor"/></svg>