<svg xmlns="http://www.w3.org/2000/svg" viewBox="0 0 13.7 13.7"><path fill="currentColor" d="M12.1 10c0-.2-.1-.4-.2-.6l-1.7-1.7c-.3-.1-.5-.2-.7-.2-.2 0-.4.1-.6.3l.2.2c.1 0 .1.1.1.1s.1.1.1.2c.1.1.1.1.1.2v.2c0 .2-.1.4-.2.6s-.3.2-.5.2h-.2l-.2-.1s-.2-.1-.2-.2L7.9 9c-.1 0-.1-.1-.1-.1-.2.2-.3.4-.3.6 0 .2.1.4.2.6l1.7 1.7c.2.2.4.2.6.2.2 0 .4-.1.6-.2l1.2-1.2c.2-.2.3-.3.3-.6zM6.2 4.1c0-.2-.1-.4-.2-.6L4.2 1.8c-.1-.1-.3-.2-.6-.2-.2 0-.4.1-.6.2L1.8 3.1c-.1.1-.2.3-.2.5s.1.4.2.6l1.7 1.7c.2.2.3.2.6.2.2 0 .4-.1.6-.3l-.2-.2c0 .1-.1 0-.1 0s-.1-.1-.1-.2c-.1-.1-.1-.1-.1-.2V5c0-.2.1-.4.2-.6.1-.2.3-.2.6-.2h.2c.1 0 .1.1.2.1.1.1.1.1.2.1s.1.1.2.2l.2.2c.1-.2.2-.4.2-.7zm7.5 5.9c0 .7-.2 1.2-.7 1.7L11.7 13c-.5.5-1 .7-1.7.7s-1.2-.2-1.7-.7l-1.7-1.7c-.5-.5-.7-1-.7-1.7s.2-1.3.7-1.7L5.9 7c-.5.5-1.1.8-1.7.8-.7 0-1.2-.2-1.7-.7L.7 5.3c-.5-.4-.7-1-.7-1.7s.2-1.2.7-1.7L1.9.7C2.4.2 3 0 3.6 0c.7 0 1.2.2 1.7.7L7 2.4c.5.5.7 1 .7 1.7S7.5 5.4 7 5.8l.7.7c.5-.5 1.1-.7 1.7-.7.7 0 1.2.2 1.7.7L13 8.3c.4.5.7 1.1.7 1.7z"/></svg>