<svg xmlns="http://www.w3.org/2000/svg" xmlns:xlink="http://www.w3.org/1999/xlink" viewBox="0 0 216.1 50"><defs><linearGradient id="a" x1="21.77" y1="12.5" x2="27.51" y2="12.5" gradientUnits="userSpaceOnUse"><stop offset="0" stop-color="#a1bc4c"/><stop offset="1" stop-color="#7aa553"/></linearGradient><linearGradient id="b" x1="15.56" y1="18.04" x2="35.68" y2="18.04" gradientUnits="userSpaceOnUse"><stop offset=".17" stop-color="#2ca55b"/><stop offset=".6" stop-color="#83c550"/></linearGradient><linearGradient id="c" x1="32.88" y1="34.49" x2="10.92" y2="40.23" xlink:href="#a"/><linearGradient id="d" x1="15.54" y1="25" x2="35.69" y2="25" xlink:href="#b"/><linearGradient id="e" x1="30.22" y1="24.87" x2="40.63" y2="24.66" gradientUnits="userSpaceOnUse"><stop offset="0" stop-color="#b1c74a"/><stop offset="1" stop-color="#dce4aa"/></linearGradient><linearGradient id="f" x1="15.54" y1="38.02" x2="7.96" y2="34.83" gradientUnits="userSpaceOnUse"><stop offset="0" stop-color="#487bbf"/><stop offset="1" stop-color="#435a91"/></linearGradient><linearGradient id="g" y1="18.04" x2="20.12" y2="18.04" gradientUnits="userSpaceOnUse"><stop offset="0" stop-color="#487bbf"/><stop offset="1" stop-color="#4758a5"/></linearGradient><linearGradient id="h" y1="25" x2="20.14" y2="25" gradientUnits="userSpaceOnUse"><stop offset="0" stop-color="#4d61ab"/><stop offset="1" stop-color="#68cef8"/></linearGradient><linearGradient id="i" x1=".26" y1="17.12" x2="10.03" y2="20.31" gradientUnits="userSpaceOnUse"><stop offset="0" stop-color="#487bbf"/><stop offset="1" stop-color="#41619d"/></linearGradient></defs><path d="M24.09 6.33c-2-2-4.17-4.09-6.25-6.33-6.59 14.33 2.65 17.7 7.06 25 2.48-4.1 3.43-9.45-.81-18.67z" fill="url(#a)"/><path d="M28.77 11.07C33.54 16.51 35.55 21 35.68 25" fill="url(#b)"/><path d="M24.9 25c-4.41 7.3-13.65 10.67-7.06 25 2.08-2.24 4.21-4.33 6.25-6.33 4.24-9.22 3.29-14.57.81-18.67z" fill="url(#c)"/><path d="M28.77 11.07c-1.44-1.55-3-3.12-4.68-4.74 4.24 9.22 3.29 14.57.81 18.67 2.48 4.1 3.43 9.45-.81 18.67 1.65-1.62 3.24-3.19 4.68-4.74C33.54 33.49 35.55 29 35.68 25c-.13-4-2.14-8.49-6.91-13.93z" fill="url(#d)"/><path d="M28.77 11.07c-1.44-1.55-3-3.12-4.68-4.74 4.24 9.22 3.29 14.57.81 18.67 2.48 4.1 3.43 9.45-.81 18.67 1.65-1.62 3.24-3.19 4.68-4.74C33.54 33.49 35.55 29 35.68 25c-.13-4-2.14-8.49-6.91-13.93z" fill="url(#e)"/><path d="M11.59 43.67c2 2 4.17 4.09 6.25 6.33 6.58-14.33-2.65-17.7-7.06-25-2.48 4.1-3.43 9.45.81 18.67z" fill="url(#f)"/><path d="M0 25c.13-4 2.14-8.49 6.9-13.93" fill="url(#g)"/><path d="M10.78 25c-2.48-4.1-3.43-9.45.81-18.67C9.94 8 8.35 9.52 6.9 11.07 2.14 16.51.13 21 0 25c.13 4 2.14 8.49 6.9 13.93 1.45 1.55 3 3.12 4.69 4.74C7.35 34.45 8.3 29.1 10.78 25z" fill="url(#h)"/><path d="M10.78 25c4.41-7.3 13.64-10.67 7.06-25-2.08 2.24-4.21 4.33-6.25 6.33C9.94 8 8.35 9.52 6.9 11.07 2.14 16.51.13 21 0 25c.13 4 2.14 8.49 6.9 13.93 1.45 1.55 3 3.12 4.69 4.74C7.35 34.45 8.3 29.1 10.78 25z" fill="url(#i)"/><path class="cls-10" d="M206.74 25.63c-2.38 2.58-4.63 5-6.82 7.4-.62.69-.93.7-1.56 0-2-2.21-4-4.34-6-6.51-.2-.21-.39-.45-.6-.7a1.54 1.54 0 00-.19 1.1v7.53a5 5 0 01-5.35 5.32c-1 0-2-.06-3.06 0-.78.06-.93-.21-.93-1V11.69c0-.65.11-.76.71-.75 1.49.05 3 0 4.48 0a5.15 5.15 0 014.17 2.06c2.24 2.59 4.54 5.14 6.76 7.74.57.66.87.84 1.54 0 2.22-2.65 4.56-5.2 6.83-7.81A5 5 0 01210.8 11h4.47c.59 0 .83.1.83.77v27.27c0 .6-.18.75-.75.73h-3.76a4.93 4.93 0 01-4.84-4.89v-8zM69.9 25.4v-9.06c0-3.25 2-5.29 5.25-5.3h17.71c.7 0 .88.22.83.87s0 1.29 0 1.93a5 5 0 01-5.23 5.26h-8.65c-.82 0-1 .23-1 1 0 1.51 0 1.51 1.51 1.51h9.47c.59 0 .77.12.82.77.33 4.47-1.95 7-6.49 6.67-1.51-.12-3 0-4.57 0-.59 0-.74.16-.74.74 0 2 0 2 1.93 2h12c.79 0 1 .23 1 1-.09 1 .06 2-.12 2.94a4.91 4.91 0 01-4.89 4.17H74.89a4.92 4.92 0 01-4.94-4.9v-9.6zm-24.04 1.95V16.46c0-3.44 2-5.43 5.41-5.44h16.17c.68 0 1 .1.92.86s0 1.69 0 2.54a4.79 4.79 0 01-4.6 4.58c-2.53.1-5.08.07-7.62 0-.76 0-1 .19-1 .95v14.14c0 3.6-2 5.62-5.57 5.62h-3c-.67 0-.84-.18-.84-.84.14-3.79.13-7.66.13-11.52zm62.82-16.74a14.38 14.38 0 00-14.75 14.8 14.36 14.36 0 0014.66 14.77c8.59 0 14.9-6.23 14.91-14.73a14.41 14.41 0 00-14.82-14.84zm0 20.81a5.71 5.71 0 01-5.66-6c0-3.48 2.42-6 5.68-6s5.63 2.5 5.64 6-2.34 6.01-5.67 6zm61.76-20.37c-3.46-.07-6.92 0-10.37 0s-5.48 2-5.49 5.47 0 7.18 0 10.78v11.69c0 .58.07.85.75.82 1.29-.07 2.58 0 3.87 0a5 5 0 004.59-3.91 8.35 8.35 0 00.15-2.23c-.06-.64.13-.87.82-.85 1.66.05 3.32 0 5 0 6.25 0 10.53-3.79 11-10 .51-7.02-3.76-11.64-10.32-11.77zm.68 11.05a2.62 2.62 0 01-2.59 2.59h-4.06c-.46 0-.57-.16-.55-.59 0-.74 0-1.31.07-4.47 0-.78.89-.59 1.79-.61a18 18 0 013 .09 2.62 2.62 0 012.34 2.99zM153 39.07q-5-13.68-9.95-27.4a.84.84 0 00-.94-.66h-5.59a6.41 6.41 0 00-6.38 4.56c-1.39 3.77-2.75 7.55-4.12 11.32l-4.66 12.8h5.43a4.88 4.88 0 005.21-3.61.88.88 0 011-.71h8.54a1 1 0 011.12.82 4.88 4.88 0 005.06 3.57h4.79c.54.02.79.02.49-.69zm-18.42-10.59l2.76-8.23 2.75 8.23z"/></svg>