<svg xmlns="http://www.w3.org/2000/svg" viewBox="0 0 76.83 80"><path fill="currentColor" d="M76.79 18.21a4.9 4.9 0 00-4.87-4.55h-5.79V2.17A2.18 2.18 0 0064 0H12.88a2.18 2.18 0 00-2.18 2.17v11.49H4.92A4.9 4.9 0 000 18.21v43.24A4.9 4.9 0 004.92 66h25.43v8.61h-3.66a4.44 4.44 0 00-4.37 4.3l-.1 1.09h32.4l-.11-1.09a4.44 4.44 0 00-4.37-4.3h-3.65V66h25.43a4.9 4.9 0 004.87-4.55V18.21zM2 59.45V20.21h8.7v19.61A2.18 2.18 0 0012.88 42H64a2.18 2.18 0 002.18-2.17V20.21h8.7v39.24zm69.92-43.79a2.9 2.9 0 012.87 2.55h-8.66v-2.55zM12.7 2.17a.18.18 0 01.18-.17H64a.18.18 0 01.18.17v4.48H12.7zm51.43 6.48v31.17A.17.17 0 0164 40H12.88a.17.17 0 01-.18-.17V8.65zm-59.21 7h5.78v2.55H2a2.91 2.91 0 012.92-2.54zm45.22 61A2.35 2.35 0 0152.25 78H24.58a2.34 2.34 0 012.11-1.39h23.45zm-5.65-2H32.35V66h12.14zM71.92 64h-67A2.9 2.9 0 012 61.45h72.79A2.9 2.9 0 0171.92 64z"/><path fill="currentColor" d="M45.1 11.44H15.72v26.64H45.1zm-2 24.64H17.72V13.44H43.1zm5.58-22.78H62.4v2H48.68zm0 8.34h3.21v2h-3.21zm4.48 0h9.24v2h-9.24zm-4.48-4.44h5.25v2h-5.25zm6.72 0h7.01v2H55.4zm-6.72 8.68H62.4v2H48.68zm0 8.34h3.21v2h-3.21zm4.48 0h9.24v2h-9.24zm-4.48-4.44h5.25v2h-5.25zm6.72 0h7.01v2H55.4zm-.87-26.46h2.17v2h-2.17zm2.83 0h2.17v2h-2.17zm2.83 0h2.17v2h-2.17z"/><path fill="currentColor" d="M30.4 28.31A5.6 5.6 0 0136 33.9h2a7.59 7.59 0 00-5.87-7.38 6 6 0 003.22-5.24 4.92 4.92 0 10-9.84 0 6 6 0 003.21 5.23 7.6 7.6 0 00-5.89 7.39h2a5.6 5.6 0 015.57-5.59zm0-9.95a2.92 2.92 0 012.92 2.92c0 1.63-1.35 3.62-2.92 3.62s-2.92-2-2.92-3.62a2.92 2.92 0 012.93-2.92z"/></svg>