<svg xmlns="http://www.w3.org/2000/svg" viewBox="0 0 24.5 24.59"><path fill="currentColor" d="M22.47 24.59A22.5 22.5 0 010 2.11a2 2 0 012-2h4.5a2 2 0 012 2 13.71 13.71 0 00.69 4.32 2 2 0 01-.5 2.06L6.3 10.94a18.71 18.71 0 007.36 7.35l2.42-2.43a2 2 0 012.06-.49 13.77 13.77 0 004.33.69 2 2 0 012 2v4.47a2 2 0 01-2 2.06zM2 1.59a.52.52 0 00-.53.52 21 21 0 0021 21 .52.52 0 00.53-.53v-4.49a.52.52 0 00-.53-.53 15.2 15.2 0 01-4.79-.77.54.54 0 00-.54.13L14 20.13l-.49-.25a20.13 20.13 0 01-8.75-8.74l-.24-.49 3.14-3.21a.53.53 0 00.13-.54A15.37 15.37 0 017 2.12a.52.52 0 00-.53-.53z"/><path fill="currentColor" d="M19.11 11.1h-1.5a4.89 4.89 0 00-4.88-4.89v-1.5a6.39 6.39 0 016.38 6.39z"/><path fill="currentColor" d="M23.83 11.1h-1.5a9.62 9.62 0 00-9.6-9.6V0a11.11 11.11 0 0111.1 11.1z"/></svg>