<svg xmlns="http://www.w3.org/2000/svg" viewBox="0 0 15.9 22.1"><path fill="currentColor" d="M7.9 22.1l-.6-.8C6.6 20.4 0 12 0 7.9 0 3.6 3.6 0 7.9 0s7.9 3.6 7.9 7.9c0 4.1-6.6 12.4-7.3 13.4l-.6.8zm0-20.5c-3.5 0-6.3 2.8-6.3 6.3 0 2.7 4.1 8.7 6.3 11.6 2.2-2.9 6.3-8.9 6.3-11.6.1-3.5-2.8-6.3-6.3-6.3z"/><path fill="currentColor" d="M7.9 14.4l-.7-1.1c-.9-1.5-2.5-4.2-2.7-5.4C4.5 6 6 4.5 7.9 4.5s3.4 1.5 3.4 3.4c-.2 1.3-1.8 4-2.7 5.5l-.7 1zm0-8.2c-1 0-1.8.8-1.8 1.7 0 .4.6 1.7 1.8 3.6C9 9.6 9.6 8.3 9.7 7.9c0-.9-.8-1.7-1.8-1.7z"/></svg>