<svg xmlns="http://www.w3.org/2000/svg" viewBox="0 0 31.14 31.5"><path class="cls-2" d="M9.6 3.2v25.39c0 1.19-2 2.16-4.43 2.16s-4.42-1-4.42-2.16V3.2"/><ellipse class="cls-2" cx="5.17" cy="2.91" rx="4.42" ry="2.16"/><path class="cls-3" d="M31.14 2.08h-21C9.51.85 7.6 0 5.17 0 2.22 0 0 1.25 0 2.91a1.35 1.35 0 00.05.29H0v25.39c0 1.66 2.22 2.91 5.17 2.91 2.35 0 4.21-.8 4.89-1.95h21.08zm-26-.58c2 0 3.36.68 3.62 1.23v.36c-.26.55-1.63 1.23-3.62 1.23C3 4.32 1.5 3.47 1.5 2.91S3 1.5 5.17 1.5zm0 28.5C3 30 1.5 29.15 1.5 28.59V5a7.72 7.72 0 003.67.82A7.77 7.77 0 008.85 5v23.59c0 .56-1.47 1.41-3.68 1.41zm24.47-1.95H10.35V3.58h19.29z"/><ellipse class="cls-3" cx="5.17" cy="2.91" rx="2.26" ry=".75"/></svg>