<svg xmlns="http://www.w3.org/2000/svg" viewBox="0 0 91.32 79.06"><path fill="currentColor" d="M7.28 67.93a3.25 3.25 0 103.25 3.24 3.25 3.25 0 00-3.25-3.24zm0 4.49a1.25 1.25 0 111.25-1.25 1.25 1.25 0 01-1.25 1.25z"/><path fill="currentColor" d="M88.84 50.09l-.45-.29-21 8.67c-1-3.36-5.59-4.37-5.74-4.4l-29.12-8.34-.24-.07-17.72 4v-7.13H0v34.71h14.57v-7L52 79.06l36.51-19.79.19-.12c1.85-1.62 2.72-3.32 2.61-5a5.78 5.78 0 00-2.47-4.06zM12.57 75.24H2V44.53h10.57v30.71zm74.89-17.67L51.7 76.94l-37.13-8.8V51.72l17.66-4 29 8.29s4.44 1 4.44 3.8a4.1 4.1 0 01-1.34 2.7 3.15 3.15 0 01-2.66.27l-16.23-3.87-.47 2 16.17 3.86a5 5 0 004.31-.59 5.73 5.73 0 002.07-3.54l20.6-8.52a3.45 3.45 0 011.19 2.17c.07 1-.55 2.12-1.85 3.28zm-41.8-17.06a17.82 17.82 0 10-17.82-17.82 17.84 17.84 0 0017.82 17.82zm0-33.64a15.82 15.82 0 11-15.82 15.82A15.84 15.84 0 0145.66 6.87z"/><path fill="currentColor" d="M40.61 32.12h2v-3.87H48v-2h-5.39v-2.11h4.91a5.94 5.94 0 000-11.88h-6.91v14h-1.75v2h1.75zm2-17.86h4.91a3.94 3.94 0 010 7.88h-4.91z"/><path fill="currentColor" d="M45.66 45.38A22.69 22.69 0 1023 22.69a22.72 22.72 0 0022.66 22.69zm0-43.38A20.69 20.69 0 1125 22.69 20.71 20.71 0 0145.66 2z"/></svg>