<svg xmlns="http://www.w3.org/2000/svg" viewBox="0 0 83.24 79.02"><path fill="currentColor" d="M74.22 61H68.9V48.69H53.47V61h-4.13V48.69H33.9V61h-4.12V48.69H14.34V61H9a9 9 0 000 18h65.2a9 9 0 000-18zM55.47 50.69h4.71v1.52h2v-1.52h4.72V61H55.47zm-19.57 0h4.72v1.52h2v-1.52h4.72V61H35.9zm-19.56 0h4.72v1.52h2v-1.52h4.72V61H16.34zM74.22 77H9a7 7 0 010-14h65.2a7 7 0 010 14z"/><path fill="currentColor" d="M14.75 66a4 4 0 104 4 4 4 0 00-4-4zm0 6a2 2 0 112-2 2 2 0 01-2 2zm53.74-6a4 4 0 104 4 4 4 0 00-4-4zm0 6a2 2 0 112-2 2 2 0 01-2 2zm-13.43-6a4 4 0 104 4 4 4 0 00-4-4zm0 6a2 2 0 112-2 2 2 0 01-2 2zm-13.44-6a4 4 0 104 4 4 4 0 00-4-4zm0 6a2 2 0 112-2 2 2 0 01-2 2zm-13.43-6a4 4 0 104 4 4 4 0 00-4-4zm0 6a2 2 0 112-2 2 2 0 01-2 2zm2.12-58.38l3.24 1.43-1.08 3.37L35.18 21l3.3-1.28 1.62 3.15h.8v5.43a3.82 3.82 0 00-2.82 3.67v2.71l-2.81 4.18 3.83 6.51 1.73-1-3.2-5.42 2.11-3.14h4.45l2.11 3.14-3.19 5.35 1.72 1 3.84-6.51-3-4.37v-2.5a3.82 3.82 0 00-2.82-3.67v-5.49h.92l1.43-3.24 3.37 1.08 2.55-2.71-1.27-3.3L53 12.94l-.11-3.72-3.19-1.43 1.07-3.37-2.7-2.55-3.31 1.28L43.14 0l-3.72.11L38 3.35l-3.38-1.08L32.07 5l1.27 3.3-3.14 1.6zm13.41 18.3v1.82h-3.64v-1.82a1.82 1.82 0 013.64 0zM35.86 9.23l-1.47-3.8.82-.87 3.88 1.24 1.65-3.73h1.2l1.87 3.62 3.8-1.47.88.82-1.25 3.86L51 10.54v1.21l-3.63 1.86 1.47 3.8-.82.88-3.88-1.24-1.64 3.72h-1.2l-1.87-3.62-3.8 1.47-.87-.83L36 14l-3.73-1.7v-1.2z"/><path fill="currentColor" d="M41.62 16.58a5.16 5.16 0 10-5.16-5.16 5.16 5.16 0 005.16 5.16zm0-8.32a3.16 3.16 0 11-3.16 3.16 3.17 3.17 0 013.16-3.16zM12.57 22.21a3.83 3.83 0 00-2.82 3.67v2.71l-2.81 4.18 3.83 6.51 1.73-1-3.2-5.44 2.11-3.14h4.45L18 32.84l-3.19 5.42 1.72 1 3.84-6.51-2.98-4.35v-2.52a3.83 3.83 0 00-2.82-3.67v-6h12.48v-2H2.63V9.48h24.42v-2H.63v8.76h11.94zm2.82 3.67v1.82h-3.64v-1.82a1.82 1.82 0 013.64 0zm53.84-3.67a3.83 3.83 0 00-2.82 3.67v2.71l-2.81 4.18 3.83 6.51 1.73-1L66 32.84l2.12-3.14h4.44l2.11 3.14-3.19 5.42 1.72 1 3.8-6.49-3-4.37v-2.52a3.83 3.83 0 00-2.82-3.67v-6h11.43V7.48H56.19v2h24.42v4.76H56.19v2h13zm2.82 3.67v1.82h-3.64v-1.82a1.82 1.82 0 113.64 0z"/></svg>