<svg xmlns="http://www.w3.org/2000/svg" viewBox="0 0 25.2 20.1"><path fill="currentColor" d="M6.7 7.9L5.6 6.8 4.4 7.9c1-3.6 4.3-6.3 8.2-6.3 3.2 0 6.1 1.8 7.5 4.6l1.4-.7c-1.7-3.4-5.2-5.5-9-5.5-5 0-9.1 3.6-9.9 8.4L1.1 6.8 0 7.9l3.3 3.4 3.4-3.4zM25.2 11l-3.3-3.4-3.4 3.4 1.1 1.1 1.4-1.4c-.3 4.4-4 7.8-8.4 7.8-3.6 0-6.9-2.3-8-5.7l-1.5.5c1.4 4.1 5.2 6.8 9.5 6.8 5.4 0 9.7-4.2 10-9.5L24 12l1.2-1z"/><path fill="currentColor" d="M7.4 10.1c0 2.9 2.4 5.3 5.3 5.3s5.2-2.4 5.2-5.3-2.4-5.2-5.2-5.2-5.3 2.3-5.3 5.2zm8.9 0c0 2-1.6 3.7-3.6 3.7S9 12.2 9 10.1c0-2 1.6-3.6 3.7-3.6 1.9-.1 3.6 1.6 3.6 3.6z"/></svg>