<svg xmlns="http://www.w3.org/2000/svg" viewBox="0 0 87.89 79.03"><path fill="currentColor" d="M9.08 13.52v20.77H4.37V79h74.44V13.53L44.06 4.92zm4.11 22.77v7.89h9.6v-7.89h7.38v19.37H6.37V36.29zm2 0h5.6v5.89h-5.6zm0 21.37h5.6v5.66h-5.6zM6.37 77V57.66h6.82v7.66h9.6v-7.66h7.38V77zm25.8-19.37h4.62v7.66h9.6v-7.63h6.33V77H32.17zm6.62 0h5.6v5.66h-5.6zM67.56 29.6H20.77v-3.48h46.79zM76.81 77h-7.25V24.12H18.77v8h2v-.52h46.79V35H34.87v2h32.69v2.92H34.87v2h32.69v2.91H34.87v2h32.69V77H54.72V55.66H32.17V34.29H11.08v-19.2L44.06 7l32.75 8.11z"/><path fill="currentColor" d="M44.31.07L44.06 0 0 11.37l.5 1.94L44.06 2.07l43.33 11.24.5-1.94L44.31.07z"/></svg>