<svg xmlns="http://www.w3.org/2000/svg" viewBox="0 0 23.5 23.5"><path fill="currentColor" d="M5.9 5.9H0V0h5.9v5.9zM1.5 4.4h2.9V1.5H1.5v2.9zm13.2 1.5H8.8V0h5.9v5.9zm-4.4-1.5h2.9V1.5h-2.9v2.9zm13.2 1.5h-5.9V0h5.9v5.9zm-4.4-1.5H22V1.5h-2.9v2.9zM5.9 23.5H0v-5.9h5.9v5.9zM1.5 22h2.9v-2.9H1.5V22zm13.2 1.5H8.8v-5.9h5.9v5.9zM10.3 22h2.9v-2.9h-2.9V22zm13.2 1.5h-5.9v-5.9h5.9v5.9zM19.1 22H22v-2.9h-2.9V22zM5.9 14.7H0V8.8h5.9v5.9zm-4.4-1.5h2.9v-2.9H1.5v2.9zm13.2 1.5H8.8V8.8h5.9v5.9zm-4.4-1.5h2.9v-2.9h-2.9v2.9zm13.2 1.5h-5.9V8.8h5.9v5.9zm-4.4-1.5H22v-2.9h-2.9v2.9z"/></svg>