<svg xmlns="http://www.w3.org/2000/svg" viewBox="0 0 20 20"><path d="M10 0a10 10 0 00-8.1 15.86L.66 19.58l3.84-1.23A10 10 0 1010 0zm5.82 14.12a2.81 2.81 0 01-2 1.41c-.52.11-1.21.2-3.5-.75a12.51 12.51 0 01-5-4.4 5.69 5.69 0 01-1.19-3 3.21 3.21 0 011-2.44 1.48 1.48 0 011-.36h.34c.29 0 .44 0 .63.5s.83 2 .9 2.16a.6.6 0 01.05.54 1.85 1.85 0 01-.33.46c-.15.17-.29.3-.43.49a.46.46 0 00-.12.62 8.94 8.94 0 001.62 2 7.15 7.15 0 002.35 1.45.62.62 0 00.7-.11 10 10 0 00.78-1 .56.56 0 01.72-.21c.27.09 1.7.8 2 .94s.49.22.56.34a2.5 2.5 0 01-.08 1.36z" fill="currentColor"/></svg>