<?xml version="1.0" encoding="UTF-8"?><!DOCTYPE svg PUBLIC "-//W3C//DTD SVG 1.1//EN" "http://www.w3.org/Graphics/SVG/1.1/DTD/svg11.dtd"><svg xmlns="http://www.w3.org/2000/svg" xmlns:xlink="http://www.w3.org/1999/xlink"><defs><linearGradient id="a" x1="21.77" y1="12.5" x2="27.51" y2="12.5" gradientUnits="userSpaceOnUse"><stop offset="0" stop-color="#a1bc4c"/><stop offset="1" stop-color="#7aa553"/></linearGradient><linearGradient id="b" x1="15.56" y1="18.04" x2="35.68" y2="18.04" gradientUnits="userSpaceOnUse"><stop offset=".17" stop-color="#2ca55b"/><stop offset=".6" stop-color="#83c550"/></linearGradient><linearGradient id="c" x1="32.88" y1="34.49" x2="10.92" y2="40.23" xlink:href="#a"/><linearGradient id="d" x1="15.54" y1="25" x2="35.69" y2="25" xlink:href="#b"/><linearGradient id="e" x1="30.22" y1="24.87" x2="40.63" y2="24.66" gradientUnits="userSpaceOnUse"><stop offset="0" stop-color="#b1c74a"/><stop offset="1" stop-color="#dce4aa"/></linearGradient><linearGradient id="f" x1="15.54" y1="38.02" x2="7.96" y2="34.83" gradientUnits="userSpaceOnUse"><stop offset="0" stop-color="#487bbf"/><stop offset="1" stop-color="#435a91"/></linearGradient><linearGradient id="g" y1="18.04" x2="20.12" y2="18.04" gradientUnits="userSpaceOnUse"><stop offset="0" stop-color="#487bbf"/><stop offset="1" stop-color="#4758a5"/></linearGradient><linearGradient id="h" y1="25" x2="20.14" y2="25" gradientUnits="userSpaceOnUse"><stop offset="0" stop-color="#4d61ab"/><stop offset="1" stop-color="#68cef8"/></linearGradient><linearGradient id="i" x1=".26" y1="17.12" x2="10.03" y2="20.31" gradientUnits="userSpaceOnUse"><stop offset="0" stop-color="#487bbf"/><stop offset="1" stop-color="#41619d"/></linearGradient></defs><symbol id="404" viewBox="0 0 133 175"><path d="M0 138.3h82.8V175h30.1v-36.8H133v-26.5h-20.1V0H73.3L0 111.8v26.5zm32.4-26.5l50.4-78.5v78.5H32.4z" fill="currentColor"/></symbol><symbol id="biomats" viewBox="0 0 31.14 31.5"><path class="cls-2" d="M9.6 3.2v25.39c0 1.19-2 2.16-4.43 2.16s-4.42-1-4.42-2.16V3.2"/><ellipse class="cls-2" cx="5.17" cy="2.91" rx="4.42" ry="2.16"/><path class="cls-3" d="M31.14 2.08h-21C9.51.85 7.6 0 5.17 0 2.22 0 0 1.25 0 2.91a1.35 1.35 0 00.05.29H0v25.39c0 1.66 2.22 2.91 5.17 2.91 2.41 0 4.32-.84 4.94-2.05h21zm-26-.58c2 0 3.36.68 3.62 1.23v.36c-.26.55-1.63 1.23-3.62 1.23C3 4.32 1.5 3.47 1.5 2.91S3 1.5 5.17 1.5zm0 28.5C3 30 1.5 29.15 1.5 28.59V5a7.72 7.72 0 003.67.82A7.77 7.77 0 008.85 5v23.59c0 .56-1.47 1.41-3.68 1.41zm24.5-2H10.35V3.58h19.29z"/><ellipse class="cls-3" cx="5.17" cy="2.91" rx="2.26" ry=".75"/><g class="cls-4"><path class="cls-3" d="M26.92 8a1 1 0 000-2h-14a1 1 0 000 2z"/></g><g class="cls-4"><path class="cls-3" d="M26.92 11.45a1 1 0 000-2h-14a1 1 0 000 2z"/></g><g class="cls-4"><path class="cls-3" d="M26.92 15a1 1 0 000-2h-14a1 1 0 000 2z"/></g><g class="cls-4"><path class="cls-3" d="M26.92 18.45a1 1 0 100-2h-14a1 1 0 000 2z"/></g><g class="cls-4"><path class="cls-3" d="M26.92 22a1 1 0 100-2h-14a1 1 0 000 2z"/></g><g class="cls-4"><path class="cls-3" d="M26.92 25.45a1 1 0 100-2h-14a1 1 0 000 2z"/></g></symbol><symbol id="burger-catalog" viewBox="0 0 24 17.5"><path fill="currentColor" d="M0 0h24v1.5H0zm0 8h18.44v1.5H0zm0 8h13.52v1.5H0z"/></symbol><symbol id="burger" viewBox="0 0 20 20"><path fill="currentColor" d="M19.41 1.18H.59A.59.59 0 010 .59.58.58 0 01.59 0h18.82a.58.58 0 01.59.59.59.59 0 01-.59.59zm0 6.27H.59A.58.58 0 010 6.86a.59.59 0 01.59-.59h18.82a.59.59 0 01.59.59.58.58 0 01-.59.59zm0 6.28H.59a.59.59 0 01-.59-.59.58.58 0 01.59-.59h18.82a.58.58 0 01.59.59.59.59 0 01-.59.59z"/></symbol><symbol id="cart-active" viewBox="0 0 24.96 25.52"><path fill="currentColor" d="M6.41 22.15a.94.94 0 11-.9.94.92.92 0 01.9-.94m0-1.5a2.44 2.44 0 102.4 2.44 2.42 2.42 0 00-2.4-2.44zm9.45 1.5a.94.94 0 11-.9.94.92.92 0 01.9-.94m0-1.5a2.44 2.44 0 102.4 2.44 2.42 2.42 0 00-2.4-2.44zm5.52-18.88l-1.92 5.55h-1.11a8 8 0 00-15.85 0H.75a.76.76 0 00-.63.33.78.78 0 00-.06.71l4.3 10a.74.74 0 00.69.46h12.4a.74.74 0 00.73-.57l2.53-10 1.74-5H25V1.77zm-4.51 15.58H5.54L1.89 8.82h.63a8 8 0 0015.81 0H19z"/><path fill="#445c92" d="M9.51 11.75L5.35 8.16l.98-1.13 3.1 2.67 5.05-5.04 1.06 1.06-6.03 6.03z"/></symbol><symbol id="cart" viewBox="0 0 24.96 23.75"><path fill="currentColor" d="M21.38 0l-1.93 5.54H.75c-.25 0-.49.13-.63.34s-.16.48-.06.71l4.3 10.03c.12.28.39.45.69.45h12.41c.34 0 .64-.23.73-.57l2.52-10 1.74-5h2.51V0h-3.58zm-4.51 15.58H5.54L1.89 7.04h17.14l-2.16 8.54zm-10.46 3.3c-1.33 0-2.4 1.09-2.4 2.44s1.08 2.44 2.4 2.44c1.33 0 2.4-1.09 2.4-2.44s-1.07-2.44-2.4-2.44zm0 3.37c-.5 0-.9-.42-.9-.94s.4-.94.9-.94.9.42.9.94-.4.94-.9.94zm9.45-3.37c-1.33 0-2.4 1.09-2.4 2.44s1.08 2.44 2.4 2.44c1.33 0 2.4-1.09 2.4-2.44s-1.07-2.44-2.4-2.44zm0 3.37c-.5 0-.9-.42-.9-.94s.4-.94.9-.94.9.42.9.94-.4.94-.9.94z"/></symbol><symbol id="clock" viewBox="0 0 24.5 24.5"><path fill="currentColor" d="M12.25 24.5A12.25 12.25 0 1124.5 12.25 12.27 12.27 0 0112.25 24.5zm0-23A10.75 10.75 0 1023 12.25 10.76 10.76 0 0012.25 1.5z"/><path fill="currentColor" d="M11.5 3.37H13v1.38h-1.5zm0 16.56H13v1.38h-1.5zm8.34-8.34h1.38v1.5h-1.38zm-16.56 0h1.38v1.5H3.28zm13.8-5.142l.975-.975 1.061 1.06-.976.976zM5.387 18.151l.975-.975 1.061 1.06-.976.976zm12.085-.24l.988-1.128 1.038.908-.987 1.13zM5.007 6.996l.987-1.13 1.039.91-.988 1.128zM15.57 16.05L11.5 12.6V7.62H13v4.28l3.54 3.01-.97 1.14z"/></symbol><symbol id="close" viewBox="0 0 18 18"><path fill="currentColor" d="M.013 17.006L16.983.036l1.061 1.06-16.97 16.971z"/><path fill="currentColor" d="M.013 1.026l1.06-1.06 16.971 16.97-1.06 1.06z"/></symbol><symbol id="comparison" viewBox="0 0 23.5 24"><path fill="currentColor" d="M0 0h1.5v24H0zm7.33 7.64h1.5V24h-1.5zm7.34-3.28h1.5V24h-1.5zM22 11.45h1.5V24H22z"/></symbol><symbol id="delete" viewBox="0 0 17.9 20.6"><path d="M17.9 3.8h-4.2v-2c0-1-.8-1.8-1.8-1.8H6C5 0 4.2.8 4.2 1.8v2H0v1.6h1.5v13.4c0 1 .8 1.8 1.8 1.8h11.3c1 0 1.8-.8 1.8-1.8V5.4h1.5V3.8zm-12.1-2c0-.1.1-.2.2-.2h6c.1 0 .2.1.2.2v2H5.8v-2zm9 17c0 .1-.1.2-.2.2H3.3c-.1 0-.2-.1-.2-.2V5.4h11.8v13.4z" fill="currentColor"/></symbol><symbol id="delivery" viewBox="0 0 21.6 15.2"><path d="M21.6 7.2L18.3 6l-1.7-3.4H13V0H0v13.3h2.8c.3 1.1 1.4 1.9 2.6 1.9s2.2-.8 2.6-1.9h5.9c.3 1.1 1.4 1.9 2.6 1.9s2.2-.8 2.6-1.9h2.5V7.2zM5.4 13.6c-.6 0-1.1-.5-1.1-1.1s.5-1.1 1.1-1.1 1.1.5 1.1 1.1-.5 1.1-1.1 1.1zm6-1.9H7.9c-.3-1.1-1.4-1.9-2.6-1.9s-2.2.8-2.6 1.9H1.6V1.6h9.8v10.1zm5.1 1.9c-.6 0-1.1-.5-1.1-1.1s.5-1.1 1.1-1.1 1.1.5 1.1 1.1-.5 1.1-1.1 1.1zm3.5-1.9h-.9c-.3-1.1-1.4-1.9-2.6-1.9s-2.2.8-2.6 1.9H13V4.2h2.6l1.6 3.1 2.8 1v3.4z" fill="currentColor"/></symbol><symbol id="documents" viewBox="0 0 69.06 80.03"><path fill="currentColor" d="M47.56 44.9a19.84 19.84 0 001.61-2.21l3.69 1.36 3-8.15-3.78-1.39a19.27 19.27 0 00.14-2.39v-.94l3.94-1-2.2-8.4-4 1.06a19.92 19.92 0 00-2.36-3.48L50.13 16l-6.87-5.31-2.62 3.39a19.45 19.45 0 00-3.92-1.32v-4.3H28v4.3A19.84 19.84 0 0024.38 14l-2.56-3.42-7 5.2 2.53 3.38a20 20 0 00-1.56 2l-3.93-1.45-3 8.15 3.84 1.42a19.49 19.49 0 00-.21 2.84v.47l-3.92 1 2.2 8.4 3.82-1A19.27 19.27 0 0017 44.67l-2.39 3.1 6.88 5.3 2.34-3A20 20 0 0028 51.48v3.82h8.68v-3.82a20.18 20.18 0 003.93-1.32L43 53.23 49.9 48zm-4.21 5.53l-2.1-2.81-.75.38a17.41 17.41 0 01-5 1.66l-.83.15v3.49H30v-3.48l-.82-.15A17.64 17.64 0 0124 47.89l-.74-.4-2.14 2.78-3.71-2.86 2.17-2.81-.52-.6a17.83 17.83 0 01-2.95-4.56l-.35-.77-3.51.92L11.07 35l3.56-.93-.05-.82v-1.17a18.62 18.62 0 01.31-3.31L15 28l-3.54-1.3 1.62-4.4 3.59 1.33.43-.71a17.72 17.72 0 012.31-3l.58-.62-2.33-3.11 3.75-2.81 2.35 3.14.74-.36a18.08 18.08 0 014.71-1.55l.82-.14v-4h4.68v4l.83.14a17.81 17.81 0 014.93 1.66l.74.38 2.4-3.1 3.7 2.86L45 19.43l.57.62a18.14 18.14 0 013 4.36l.35.75 3.68-1 1.19 4.53-3.62 1 .07.84c.05.59.07 1.12.07 1.61A17.77 17.77 0 0150 35l-.13.81 3.43 1.27-1.62 4.39-3.38-1.25-.42.74a17.3 17.3 0 01-2.34 3.2l-.56.62 2.13 2.83z"/><path fill="currentColor" d="M32.38 18.05a13.83 13.83 0 1013.83 13.83 13.85 13.85 0 00-13.83-13.83zm-1 25.61v-8.22a.76.76 0 010-.15l.14-.8-.75-.3A4.37 4.37 0 0128 30.11 4.45 4.45 0 0129.23 27v4.08h6.3V27a4.41 4.41 0 011.25 3.08A4.36 4.36 0 0134 34.19l-.77.31.16.81v8.35c-.34 0-.69.05-1 .05s-.7-.02-1.04-.05zm4.07-.36v-7.56a6.41 6.41 0 00-.49-11.51l-1.4-.6v5.48h-2.3v-5.48l-1.4.6A6.43 6.43 0 0026 30.11a6.37 6.37 0 003.37 5.63v7.56a11.83 11.83 0 116.07 0z"/><path fill="currentColor" d="M69.06 3.11H58.13l-3-3.11H0v72.85h5.1v4.28h42.4V80l4.5-3.45L56.56 80v-2.9h12.5zm-7.64 6.32h-5.71V3.48zM2 2h51.71v8.43a1 1 0 001 1h8.06v59.42h-6.21v-4a6.75 6.75 0 10-9.06.15v3.86H2zm47.44 64a4.76 4.76 0 112.51.71 4.74 4.74 0 01-2.51-.71zM7.1 75.13v-2.28h40.4v2.28zm45.35-.78h-.84L49.5 76v-7.8a6.8 6.8 0 002.45.47 6.72 6.72 0 002.61-.52V76zm14.61.78h-10.5v-2.28h8.21V10l-4.72-4.89h7z"/><path fill="currentColor" d="M6.1 58.74h12.64v2H6.1zm0 3.7h20.89v2H6.1z"/></symbol><symbol id="eye" viewBox="0 0 16 11.1"><path fill="currentColor" d="M15.8 5.2s-.2-.3-.3-.4c-.4-.5-1.3-1.7-2.6-2.8C11.3.7 9.6 0 8 0S4.7.7 3.1 2C1.8 3.1.9 4.3.5 4.8c-.1.1-.2.4-.3.4l-.2.3.2.4s.2.3.3.4C.9 6.8 1.8 8 3.1 9c1.6 1.3 3.3 2 4.9 2s3.3-.7 4.9-2c1.3-1.1 2.2-2.3 2.6-2.8.1-.1.2-.3.3-.4l.2-.3-.2-.3zM8 9.8c-2.1 0-4.3-1.4-6.5-4.3C3.7 2.7 5.9 1.2 8 1.2c2.1 0 4.3 1.4 6.5 4.3-2.2 2.9-4.4 4.3-6.5 4.3z"/><circle fill="currentColor" cx="8" cy="5.5" r="1.2"/><path fill="currentColor" d="M8 2C6 2 4.4 3.6 4.4 5.5c0 2 1.6 3.6 3.6 3.6s3.6-1.6 3.6-3.6C11.6 3.6 10 2 8 2zm0 5.8c-1.3 0-2.3-1-2.3-2.3s1-2.3 2.3-2.3 2.3 1 2.3 2.3c0 1.3-1 2.3-2.3 2.3z"/></symbol><symbol id="favorite" viewBox="0 0 23.5 23.88"><path d="M11.75 23.88l-.56-.63C10 22 0 10.46 0 6.89A6.79 6.79 0 016.66 0C9 0 10.77 2 11.75 3.38 12.73 2 14.53 0 16.84 0a6.79 6.79 0 016.66 6.89c0 3.57-10 15.06-11.19 16.36zM6.66 1.5A5.28 5.28 0 001.5 6.89c0 2.17 6.06 9.91 10.25 14.72C15.94 16.8 22 9.06 22 6.89a5.28 5.28 0 00-5.16-5.39c-1.74 0-3.44 1.89-4.44 3.65l-.65 1.15-.65-1.15c-1-1.76-2.7-3.65-4.44-3.65z" fill="currentColor"/></symbol><symbol id="fb" viewBox="0 0 10 20"><path d="M6.25 6.88v-2.5A1.24 1.24 0 017.5 3.13h1.25V0h-2.5A3.75 3.75 0 002.5 3.75v3.13H0V10h2.5v10h3.75V10h2.5L10 6.88z" fill="currentColor"/></symbol><symbol id="file" viewBox="0 0 18.8 20"><path fill="currentColor" d="M18.6 7.3c-.3-.3-.9-.3-1.2 0l-10 10.1a3.32 3.32 0 01-4.7 0 3.32 3.32 0 010-4.7L13 2.3c.8-.8 2.1-.8 2.9 0 .8.8.8 2.1 0 2.9l-8.5 8.5c-.3.3-.9.3-1.2 0-.3-.3-.3-.9 0-1.2l4.1-4.1c.3-.3.3-.9 0-1.2s-.9-.2-1.2.1L5 11.4c-1 1-1 2.6 0 3.5 1 1 2.6 1 3.5 0L17 6.4c1.5-1.5 1.5-3.8 0-5.3s-3.8-1.5-5.3 0L1.5 11.5c-2 2-2 5.1 0 7.1s5.1 2 7.1 0l10-10.1c.3-.4.3-.9 0-1.2z"/></symbol><symbol id="filter" viewBox="0 0 21.6 22.4"><path fill="currentColor" d="M7.6 22.4V11.9L0 5.2V0h21.6v5.2L14 11.9V19l-6.4 3.4zm-6-18l7.6 6.7v8.6l3.1-1.7v-6.9L20 4.4V1.6H1.6v2.8z"/></symbol><symbol id="geocomposite" viewBox="0 0 30.05 29.87"><path d="M0 0v29.87h30.05V0zm28.55 5.71h-4V1.5h4zm-15.68 11.1v-4.1h4.32v4.1zm4.32 1.5v4h-4.32v-4zm-5.82-1.5H7v-4.1h4.33zm1.5-5.6v-4h4.32v4zm5.82 1.5H23v4.1h-4.31zm0-1.5v-4H23v4zm0-5.5V1.5H23v4.21zm-1.5 0h-4.32V1.5h4.32zm-5.82 0H7V1.5h4.33zm0 1.5v4H7v-4zm-5.83 4h-4v-4h4zm0 1.5v4.1h-4v-4.1zm0 5.6v4h-4v-4zm1.5 0h4.33v4H7zm4.33 5.5v4.56H7v-4.56zm1.5 0h4.32v4.56h-4.32zm5.82 0H23v4.56h-4.31zm0-1.5v-4H23v4zm5.82-4h4v4h-4zm0-1.5v-4.1h4v4.1zm0-5.6v-4h4v4zM5.54 1.5v4.21h-4V1.5zm-4 22.31h4v4.56h-4zm23 4.56v-4.56h4v4.56z" fill="#6caa55"/></symbol><symbol id="geogrid" viewBox="0 0 29.5 30.73"><path d="M28.23 18.14l.17-.14a3.45 3.45 0 001.1-2.32 3 3 0 00-1-2.1 13.1 13.1 0 01-.77-.88l-1.57-1.95 1.32-1.54c.24-.27.49-.53.74-.79l.19-.2a3.44 3.44 0 001.1-2.32 3 3 0 00-1-2.09c-.27-.29-.52-.58-.77-.88L25.39 0 23 3c-.24.29-.48.57-.73.84a5 5 0 00-.44.51 5.66 5.66 0 00-.43-.52c-.27-.29-.53-.58-.77-.88L18.3 0l-2.4 3c-.23.29-.47.57-.73.84-.11.12-.21.23-.3.35-.1-.13-.21-.25-.31-.36-.27-.29-.53-.58-.77-.88L11.46 0l-2.4 3c-.23.29-.47.57-.73.84a6.53 6.53 0 00-.56.69 5.54 5.54 0 00-.56-.7c-.27-.29-.53-.58-.77-.88L4.11 0l-2.4 3c-.23.29-.47.57-.73.84A2.77 2.77 0 000 5.87a3.32 3.32 0 001.07 2.22l.15.16c.33.34.66.69 1 1.06l1.16 1.4-1.63 2c-.24.29-.48.56-.74.84a2.77 2.77 0 00-1 2.08 3.32 3.32 0 001.07 2.22l.12.13c.34.35.68.71 1 1.08l1 1.19-1.46 1.8c-.24.29-.48.57-.74.84A2.77 2.77 0 000 25a3.32 3.32 0 001.07 2.22l.15.15c.33.35.66.7 1 1.07l1.91 2.3 2.06-2.44c.25-.28.51-.55.77-.82l.16-.17a4.63 4.63 0 00.68-.92 4.42 4.42 0 00.62.82l.15.15c.33.35.66.7 1 1.07l1.92 2.3 2.09-2.43c.24-.28.51-.55.77-.82l.16-.17a4.16 4.16 0 00.43-.53 3.57 3.57 0 00.36.43l.15.15c.33.35.66.7 1 1.07l1.92 2.3 2.09-2.43c.24-.28.51-.55.77-.82l.16-.17a4.8 4.8 0 00.55-.7 5.17 5.17 0 00.49.6l.16.16c.33.35.66.69 1 1.06l1.91 2.3 2.09-2.43c.25-.28.51-.55.76-.82l.17-.17A3.44 3.44 0 0029.5 25a3 3 0 00-1-2.1c-.27-.28-.52-.57-.77-.87l-1.39-1.74L27.47 19c.25-.32.53-.59.76-.86zM23.36 4.81c.28-.3.55-.6.8-.91l1.23-1.51 1.17 1.45c.26.32.54.64.83 1 .47.51.61.75.61 1.07a2 2 0 01-.68 1.28l-.19.2c-.27.28-.54.56-.79.85l-.94 1.05-.78-.94c-.32-.39-.67-.76-1-1.13l-.16-.16a2 2 0 01-.66-1.19c-.02-.36.03-.48.56-1.06zm-2.05 3.38a4.8 4.8 0 00.55-.7 5.17 5.17 0 00.49.6l.16.16c.33.35.66.69 1 1.06l1.17 1.4-1.64 2c-.24.29-.48.56-.73.84a6.31 6.31 0 00-.44.5c-.14-.18-.28-.35-.43-.52a10.77 10.77 0 01-.77-.88L19.1 10.7l1.32-1.54c.24-.27.49-.53.74-.8zm-6.44 15.07c-.1-.13-.21-.25-.31-.37-.27-.28-.53-.57-.77-.87l-1.39-1.74L13.54 19c.24-.28.51-.55.77-.82l.16-.17a5 5 0 00.43-.53c.11.14.22.28.36.43l.12.13c.34.35.68.71 1 1.08l1 1.19-1.46 1.8c-.23.29-.47.57-.73.84-.13.05-.19.19-.32.31zm-.4-15.07a4.16 4.16 0 00.43-.53 3.57 3.57 0 00.36.43l.15.16c.33.34.66.69 1 1.06l1.17 1.4-1.64 2c-.23.29-.47.56-.73.84l-.3.34-.31-.36a10.77 10.77 0 01-.77-.88l-1.57-1.95 1.32-1.54c.24-.27.49-.53.74-.79zm-3 4l1.17 1.45q.41.5.84 1c.47.51.61.75.61 1.08a2.1 2.1 0 01-.68 1.28l-.17.17c-.27.29-.55.58-.81.88l-.94 1.08-.78-.94c-.34-.39-.7-.78-1.06-1.16l-.12-.13a1.93 1.93 0 01-.66-1.18c0-.36.05-.49.58-1.06.28-.3.54-.6.8-.91zm6.08 6c-.34-.39-.7-.78-1.06-1.16l-.12-.13a1.93 1.93 0 01-.66-1.18c0-.36.05-.49.58-1.06.28-.3.54-.6.8-.91l1.23-1.52 1.16 1.45q.41.5.84 1c.47.51.61.75.61 1.08a2.1 2.1 0 01-.68 1.28l-.16.16c-.28.3-.56.59-.82.89l-.94 1.08zM16.27 4.81c.28-.3.54-.6.8-.91l1.23-1.51 1.16 1.45c.27.33.55.64.84 1 .47.51.61.75.61 1.07a2.07 2.07 0 01-.69 1.28l-.18.2c-.27.28-.54.56-.79.85l-.94 1.09-.78-.94c-.33-.39-.68-.77-1-1.14l-.14-.15a2 2 0 01-.66-1.19c-.04-.4.01-.52.54-1.1zm-6.84 0c.28-.3.54-.6.8-.91l1.22-1.51 1.17 1.45q.41.48.84 1c.47.51.61.75.61 1.07a2.07 2.07 0 01-.69 1.28l-.18.2c-.27.28-.54.56-.79.85l-.94 1.09-.78-.94c-.33-.39-.68-.77-1-1.14l-.14-.15a2 2 0 01-.66-1.19c-.04-.4.01-.52.54-1.1zM7.12 8.19a4.63 4.63 0 00.68-.92 4.42 4.42 0 00.62.82l.15.16c.33.34.66.69 1 1.06l1.17 1.4-1.64 2c-.23.29-.47.56-.73.84a6.53 6.53 0 00-.56.69 6.48 6.48 0 00-.56-.71 10.77 10.77 0 01-.77-.88l-1.61-1.93 1.32-1.54c.24-.27.49-.53.74-.8zm-4.82-1l-.14-.15a2 2 0 01-.66-1.17c0-.36.05-.48.58-1.06.28-.3.55-.6.8-.91l1.23-1.51 1.16 1.45q.41.48.84 1c.47.51.61.75.61 1.07A2 2 0 016 7.15l-.19.2c-.27.28-.54.56-.79.85l-.9 1.09-.78-.94C3 8 2.66 7.58 2.3 7.21zm-.14 9.62a1.93 1.93 0 01-.66-1.18c0-.36.05-.49.58-1.06.28-.3.54-.6.8-.91l1.23-1.52 1.16 1.45q.41.5.84 1c.47.51.61.75.61 1.08A2 2 0 016 16.93l-.16.16c-.28.3-.56.59-.82.89l-.94 1.08-.78-.94c-.33-.39-.7-.78-1.06-1.16zM6 26.27l-.16.17c-.28.29-.56.58-.82.88l-.94 1.09-.78-.94c-.33-.39-.68-.77-1-1.14l-.14-.15A2 2 0 011.5 25c0-.36.05-.48.58-1.06.28-.3.54-.6.8-.91l1.23-1.51L5.27 23c.27.33.55.64.84.95.47.52.61.76.61 1.08A2 2 0 016 26.27zm2.29-3.36a5.72 5.72 0 00-.56.7 5.76 5.76 0 00-.56-.72c-.27-.28-.53-.57-.77-.87l-1.35-1.74L6.19 19c.25-.28.51-.55.77-.83l.16-.17a4.63 4.63 0 00.68-.92 4.78 4.78 0 00.62.82l.12.13c.34.35.68.71 1 1.08l1 1.19-1.46 1.8c-.25.26-.49.54-.75.81zm5.06 3.36l-.17.17c-.27.29-.55.58-.81.88l-.94 1.09-.78-.94c-.33-.39-.68-.77-1-1.14l-.14-.15A2 2 0 018.85 25c0-.36.05-.48.58-1.06.28-.3.54-.6.8-.91l1.22-1.51L12.62 23c.27.32.55.64.84.95.47.52.61.76.61 1.08a2.1 2.1 0 01-.68 1.24zm6.84 0l-.16.17c-.28.29-.56.58-.82.88l-.94 1.09-.78-.94c-.33-.39-.68-.77-1-1.14l-.14-.15a2 2 0 01-.66-1.18c0-.36.05-.48.58-1.06.28-.3.54-.6.8-.91l1.23-1.51L19.46 23c.27.33.55.64.84.95.47.52.61.76.61 1.08a2.1 2.1 0 01-.68 1.24zm2-3.36a5 5 0 00-.44.51c-.14-.19-.28-.36-.43-.53s-.53-.57-.77-.87l-1.39-1.74L20.38 19c.24-.28.51-.55.77-.83l.16-.16a4.38 4.38 0 00.55-.71 5.24 5.24 0 00.49.61l.13.14c.34.35.68.7 1 1.07l1 1.19L23 22.07c-.24.29-.48.57-.73.84zm4.29.05c.26.33.54.64.83.95.47.52.61.76.61 1.08a2 2 0 01-.68 1.28l-.17.17c-.27.29-.55.58-.81.88l-.94 1.09-.78-.94c-.32-.39-.67-.76-1-1.13l-.16-.16a2 2 0 01-.6-1.18c0-.36 0-.48.58-1.06.28-.3.55-.6.8-.91l1.23-1.51L26.56 23zm.59-5.86c-.27.29-.55.58-.81.88l-.94 1.08-.78-.94c-.33-.39-.69-.77-1.05-1.15l-.13-.14a2 2 0 01-.66-1.18c0-.36 0-.49.58-1.06.28-.3.55-.6.8-.91l1.23-1.52 1.17 1.45c.26.33.54.65.83 1 .47.51.61.75.61 1.08a2 2 0 01-.68 1.28z" fill="#6caa55"/></symbol><symbol id="geomembrane" viewBox="0 0 31.14 31.5"><path class="cls-2" d="M9.6 3.2v25.39c0 1.19-2 2.16-4.43 2.16s-4.42-1-4.42-2.16V3.2"/><ellipse class="cls-2" cx="5.17" cy="2.91" rx="4.42" ry="2.16"/><path class="cls-3" d="M31.14 2.08h-21C9.51.85 7.6 0 5.17 0 2.22 0 0 1.25 0 2.91a1.35 1.35 0 00.05.29H0v25.39c0 1.66 2.22 2.91 5.17 2.91 2.41 0 4.31-.84 4.94-2.05h21zm-26-.58c2 0 3.36.68 3.62 1.23v.36c-.26.55-1.63 1.23-3.62 1.23C3 4.32 1.5 3.47 1.5 2.91S3 1.5 5.17 1.5zm0 28.5C3 30 1.5 29.15 1.5 28.59V5a7.72 7.72 0 003.67.82A7.77 7.77 0 008.85 5v23.59c0 .56-1.47 1.41-3.68 1.41zm24.5-2H10.35V3.58h19.29z"/><ellipse class="cls-3" cx="5.17" cy="2.91" rx="2.26" ry=".75"/><g class="cls-4"><circle class="cls-3" cx="12.92" cy="6.96" r=".99"/><circle class="cls-3" cx="16.42" cy="6.96" r=".99"/><circle class="cls-3" cx="19.92" cy="6.96" r=".99"/><circle class="cls-3" cx="23.42" cy="6.96" r=".99"/><circle class="cls-3" cx="26.92" cy="6.96" r=".99"/></g><g class="cls-4"><circle class="cls-3" cx="12.92" cy="10.46" r=".99"/><circle class="cls-3" cx="16.42" cy="10.46" r=".99"/><circle class="cls-3" cx="19.92" cy="10.46" r=".99"/><circle class="cls-3" cx="23.42" cy="10.46" r=".99"/><circle class="cls-3" cx="26.92" cy="10.46" r=".99"/></g><g class="cls-4"><circle class="cls-3" cx="12.92" cy="13.96" r=".99"/><circle class="cls-3" cx="16.42" cy="13.96" r=".99"/><circle class="cls-3" cx="19.92" cy="13.96" r=".99"/><circle class="cls-3" cx="23.42" cy="13.96" r=".99"/><circle class="cls-3" cx="26.92" cy="13.96" r=".99"/></g><g class="cls-4"><circle class="cls-3" cx="12.92" cy="17.46" r=".99"/><circle class="cls-3" cx="16.42" cy="17.46" r=".99"/><circle class="cls-3" cx="19.92" cy="17.46" r=".99"/><circle class="cls-3" cx="23.42" cy="17.46" r=".99"/><circle class="cls-3" cx="26.92" cy="17.46" r=".99"/></g><g class="cls-4"><circle class="cls-3" cx="12.92" cy="20.96" r=".99"/><circle class="cls-3" cx="16.42" cy="20.96" r=".99"/><circle class="cls-3" cx="19.92" cy="20.96" r=".99"/><circle class="cls-3" cx="23.42" cy="20.96" r=".99"/><circle class="cls-3" cx="26.92" cy="20.96" r=".99"/></g><g class="cls-4"><circle class="cls-3" cx="12.92" cy="24.46" r=".99"/><circle class="cls-3" cx="16.42" cy="24.46" r=".99"/><circle class="cls-3" cx="19.92" cy="24.46" r=".99"/><circle class="cls-3" cx="23.42" cy="24.46" r=".99"/><circle class="cls-3" cx="26.92" cy="24.46" r=".99"/></g></symbol><symbol id="geotextile" viewBox="0 0 31.14 31.5"><path class="cls-2" d="M8.79 1.83h21.6V29.7H9.04"/><path class="cls-2" d="M9.6 3.2v25.39c0 1.19-2 2.16-4.43 2.16s-4.42-1-4.42-2.16V3.2"/><ellipse class="cls-2" cx="5.17" cy="2.91" rx="4.42" ry="2.16"/><path class="cls-3" d="M31.14 1.08H9.22A7.11 7.11 0 005.17 0C2.22 0 0 1.25 0 2.91a1.35 1.35 0 00.05.29H0v25.39c0 1.66 2.22 2.91 5.17 2.91a7.18 7.18 0 004-1.05h22zm-26 .42c2.21 0 3.68.85 3.68 1.41S7.38 4.32 5.17 4.32 1.5 3.47 1.5 2.91 3 1.5 5.17 1.5zm0 28.5C3 30 1.5 29.15 1.5 28.59V5a7.72 7.72 0 003.67.82A7.77 7.77 0 008.85 5v23.59c0 .56-1.47 1.41-3.68 1.41zm24.5-1H10.29a2.25 2.25 0 00.06-.36V3.2a1.35 1.35 0 000-.29 1.91 1.91 0 00-.06-.33h19.35z"/><ellipse class="cls-3" cx="5.17" cy="2.91" rx="2.26" ry=".75"/></symbol><symbol id="hide" viewBox="0 0 16 16"><path fill="currentColor" d="M7.6 10.3c-1-.2-1.8-.9-1.9-1.9L4.5 7.2c0 .2-.1.5-.1.8 0 2 1.6 3.6 3.6 3.6.3 0 .6 0 .8-.1l-1.2-1.2zm7.9-1.6c.1-.1.2-.3.3-.4L16 8l-.2-.4s-.2-.3-.3-.4c-.4-.5-1.3-1.7-2.6-2.8-1.6-1.3-3.3-2-4.9-2-1.2 0-2.4.4-3.6 1.1L.9 0 0 .9 15.1 16l.9-.9-3.4-3.4c1.4-1.1 2.5-2.4 2.9-3zm-5.5.4l-.8-.8V8c0-.7-.5-1.2-1.2-1.2h-.3L6.9 6c.3-.2.7-.3 1.1-.3 1.3 0 2.3 1 2.3 2.3 0 .4-.1.8-.3 1.1zm.9.9c.4-.6.6-1.3.6-2 0-2-1.6-3.6-3.6-3.6-.7 0-1.4.2-2 .6l-.6-.6c.9-.4 1.8-.7 2.7-.7 2.1 0 4.3 1.4 6.5 4.3-.5.6-1.4 1.8-2.8 2.8l-.8-.8z"/><path fill="currentColor" d="M9.4 12.1c-.5.1-.9.2-1.4.2-2.1 0-4.3-1.4-6.5-4.3.3-.4.9-1.2 1.8-2l-.9-.9C1.5 6 .8 6.8.5 7.3c-.1.1-.2.3-.3.3L0 8l.2.4s.2.3.3.4c.4.5 1.3 1.7 2.6 2.8 1.6 1.3 3.3 2 4.9 2 .8 0 1.6-.2 2.4-.5l-1-1z"/></symbol><symbol id="info" viewBox="0 0 20 20"><path d="M10 0C4.5 0 0 4.5 0 10s4.5 10 10 10 10-4.5 10-10S15.5 0 10 0zm2.1 15.5c-.5.2-.9.4-1.2.5-.3.1-.7.2-1.1.2-.6 0-1.1-.2-1.5-.5-.3-.3-.5-.7-.5-1.2v-.6c0-.2.1-.4.1-.6l.7-2.3c.1-.2.1-.4.1-.6 0-.2.1-.4.1-.5 0-.3-.1-.5-.2-.6-.1-.1-.3-.2-.6-.2-.2 0-.3 0-.5.1-.2 0-.4.1-.5.1l.2-.7c.4-.1.8-.3 1.2-.4.4-.1.7-.2 1.1-.2.6 0 1.1.2 1.4.4.3.3.5.7.5 1.2v.5c0 .2-.1.5-.1.7l-.6 2.3c-.1.2-.1.4-.1.6 0 .2-.1.4-.1.5 0 .3.1.5.2.6 0 .2.3.2.6.2.2 0 .3 0 .5-.1s.3-.1.4-.1l-.1.7zM12 6.3c-.3.3-.7.4-1.1.4-.4 0-.8-.1-1.1-.4-.3-.3-.4-.6-.4-1s.2-.7.5-1c.3-.3.7-.4 1.1-.4.4 0 .8.1 1.1.4.3.3.4.6.4 1-.1.4-.2.7-.5 1z" fill="currentColor"/></symbol><symbol id="inst" viewBox="0 0 20 20"><path fill="currentColor" d="M17.07 0H2.92A2.92 2.92 0 000 2.92v14.15A2.93 2.93 0 002.92 20h14.15A2.93 2.93 0 0020 17.07V2.92A2.93 2.93 0 0017.07 0zM10 15.24A5.28 5.28 0 1115.31 10 5.28 5.28 0 0110 15.24zm5.86-9.38a1.76 1.76 0 111.77-1.76 1.76 1.76 0 01-1.73 1.76z"/><path fill="currentColor" d="M10 6.91a3.07 3.07 0 10.05 0z"/></symbol><symbol id="like" viewBox="0 0 20 19.6"><path d="M19.7 8.9C19.2 7.7 18 7 16.8 7h-3.6l.8-4.3c.1-.4-.1-1-.4-1.2L12 .3c-.3-.2-.7-.3-1.1-.3-.4 0-.7.3-1 .5l-4.4 6H0V19h5.8v-.7c.6.9 1.6 1.3 2.7 1.3h3.8c1 0 1.9-.4 2.6-1.3l4.6-6c.6-.9.7-2.2.2-3.4zM4.3 17.6H1.4V8h2.9v9.6zm13.9-6.1l-4.6 6c-.4.4-.9.7-1.5.7H8.4c-.6 0-1.2-.4-1.6-.9l-1-1.3V8.7l5.3-7.3 1.4 1.3-1.1 5.8h5.3c.7 0 1.3.4 1.7 1.1.3.7.3 1.4-.2 1.9z" fill="currentColor"/></symbol><symbol id="link" viewBox="0 0 13.7 13.7"><path fill="currentColor" d="M12.1 10c0-.2-.1-.4-.2-.6l-1.7-1.7c-.3-.1-.5-.2-.7-.2-.2 0-.4.1-.6.3l.2.2c.1 0 .1.1.1.1s.1.1.1.2c.1.1.1.1.1.2v.2c0 .2-.1.4-.2.6s-.3.2-.5.2h-.2l-.2-.1s-.2-.1-.2-.2L7.9 9c-.1 0-.1-.1-.1-.1-.2.2-.3.4-.3.6 0 .2.1.4.2.6l1.7 1.7c.2.2.4.2.6.2.2 0 .4-.1.6-.2l1.2-1.2c.2-.2.3-.3.3-.6zM6.2 4.1c0-.2-.1-.4-.2-.6L4.2 1.8c-.1-.1-.3-.2-.6-.2-.2 0-.4.1-.6.2L1.8 3.1c-.1.1-.2.3-.2.5s.1.4.2.6l1.7 1.7c.2.2.3.2.6.2.2 0 .4-.1.6-.3l-.2-.2c0 .1-.1 0-.1 0s-.1-.1-.1-.2c-.1-.1-.1-.1-.1-.2V5c0-.2.1-.4.2-.6.1-.2.3-.2.6-.2h.2c.1 0 .1.1.2.1.1.1.1.1.2.1s.1.1.2.2l.2.2c.1-.2.2-.4.2-.7zm7.5 5.9c0 .7-.2 1.2-.7 1.7L11.7 13c-.5.5-1 .7-1.7.7s-1.2-.2-1.7-.7l-1.7-1.7c-.5-.5-.7-1-.7-1.7s.2-1.3.7-1.7L5.9 7c-.5.5-1.1.8-1.7.8-.7 0-1.2-.2-1.7-.7L.7 5.3c-.5-.4-.7-1-.7-1.7s.2-1.2.7-1.7L1.9.7C2.4.2 3 0 3.6 0c.7 0 1.2.2 1.7.7L7 2.4c.5.5.7 1 .7 1.7S7.5 5.4 7 5.8l.7.7c.5-.5 1.1-.7 1.7-.7.7 0 1.2.2 1.7.7L13 8.3c.4.5.7 1.1.7 1.7z"/></symbol><symbol id="list" viewBox="0 0 23.5 23.5"><path fill="currentColor" d="M23.5 5.9H0V0h23.5v5.9zm-22-1.5H22V1.5H1.5v2.9zm22 19.1H0v-5.9h23.5v5.9zM1.5 22H22v-2.9H1.5V22zm22-7.3H0V8.8h23.5v5.9zm-22-1.5H22v-2.9H1.5v2.9z"/></symbol><symbol id="lk" viewBox="0 0 19.21 23.75"><path d="M12 12a6.24 6.24 0 10-4.69 0A9.61 9.61 0 000 21.31v2.44h1.5v-2.44a8.11 8.11 0 1116.21 0v2.44h1.5v-2.44A9.62 9.62 0 0012 12zM4.87 6.23A4.74 4.74 0 119.61 11a4.74 4.74 0 01-4.74-4.77z" fill="currentColor"/></symbol><symbol id="logo-icon" viewBox="0 0 35.7 50"><linearGradient id="a" gradientUnits="userSpaceOnUse" x1="21.77" y1="39.5" x2="27.51" y2="39.5" gradientTransform="matrix(1 0 0 -1 0 52)"><stop offset="0" stop-color="#a1bc4c"/><stop offset="1" stop-color="#7aa553"/></linearGradient><path d="M24.1 6.3c-2-2-4.2-4.1-6.3-6.3-6.6 14.3 2.6 17.7 7.1 25 2.5-4.1 3.4-9.4-.8-18.7z" fill="url(#a)"/><linearGradient id="b" gradientUnits="userSpaceOnUse" x1="15.56" y1="33.965" x2="35.68" y2="33.965" gradientTransform="matrix(1 0 0 -1 0 52)"><stop offset=".17" stop-color="#2ca55b"/><stop offset=".6" stop-color="#83c550"/></linearGradient><path d="M28.8 11.1c4.8 5.4 6.8 9.9 6.9 13.9" fill="url(#b)"/><linearGradient id="c" gradientUnits="userSpaceOnUse" x1="32.88" y1="17.509" x2="10.92" y2="11.769" gradientTransform="matrix(1 0 0 -1 0 52)"><stop offset="0" stop-color="#a1bc4c"/><stop offset="1" stop-color="#7aa553"/></linearGradient><path d="M24.9 25c-4.4 7.3-13.6 10.7-7.1 25 2.1-2.2 4.2-4.3 6.3-6.3 4.2-9.2 3.3-14.6.8-18.7z" fill="url(#c)"/><linearGradient id="d" gradientUnits="userSpaceOnUse" x1="15.54" y1="27" x2="35.69" y2="27" gradientTransform="matrix(1 0 0 -1 0 52)"><stop offset=".17" stop-color="#2ca55b"/><stop offset=".6" stop-color="#83c550"/></linearGradient><path d="M28.8 11.1c-1.4-1.6-3-3.1-4.7-4.7 4.2 9.2 3.3 14.6.8 18.7 2.5 4.1 3.4 9.5-.8 18.7l4.7-4.7c4.8-5.4 6.8-9.9 6.9-13.9-.2-4.2-2.2-8.7-6.9-14.1z" fill="url(#d)"/><linearGradient id="e" gradientUnits="userSpaceOnUse" x1="30.22" y1="27.124" x2="40.63" y2="27.334" gradientTransform="matrix(1 0 0 -1 0 52)"><stop offset="0" stop-color="#b1c74a"/><stop offset="1" stop-color="#dce4aa"/></linearGradient><path d="M28.8 11.1c-1.4-1.6-3-3.1-4.7-4.7 4.2 9.2 3.3 14.6.8 18.7 2.5 4.1 3.4 9.5-.8 18.7l4.7-4.7c4.8-5.4 6.8-9.9 6.9-13.9-.2-4.2-2.2-8.7-6.9-14.1z" fill="url(#e)"/><linearGradient id="f" gradientUnits="userSpaceOnUse" x1="15.541" y1="13.982" x2="7.961" y2="17.172" gradientTransform="matrix(1 0 0 -1 0 52)"><stop offset="0" stop-color="#487bbf"/><stop offset="1" stop-color="#435a91"/></linearGradient><path d="M11.6 43.7c2 2 4.2 4.1 6.3 6.3 6.6-14.3-2.6-17.7-7.1-25-2.5 4.1-3.5 9.5.8 18.7z" fill="url(#f)"/><linearGradient id="g" gradientUnits="userSpaceOnUse" x1="0" y1="33.965" x2="20.12" y2="33.965" gradientTransform="matrix(1 0 0 -1 0 52)"><stop offset="0" stop-color="#487bbf"/><stop offset="1" stop-color="#4758a5"/></linearGradient><path d="M0 25c.1-4 2.1-8.5 6.9-13.9" fill="url(#g)"/><linearGradient id="h" gradientUnits="userSpaceOnUse" x1="0" y1="27" x2="20.14" y2="27" gradientTransform="matrix(1 0 0 -1 0 52)"><stop offset="0" stop-color="#4d61ab"/><stop offset="1" stop-color="#68cef8"/></linearGradient><path d="M10.8 25c-2.5-4.1-3.4-9.4.8-18.7C9.9 8 8.4 9.5 6.9 11.1 2.1 16.5.1 21 0 25c.1 4 2.1 8.5 6.9 13.9 1.5 1.5 3 3.1 4.7 4.7-4.3-9.1-3.3-14.5-.8-18.6z" fill="url(#h)"/><linearGradient id="i" gradientUnits="userSpaceOnUse" x1=".261" y1="34.884" x2="10.031" y2="31.694" gradientTransform="matrix(1 0 0 -1 0 52)"><stop offset="0" stop-color="#487bbf"/><stop offset="1" stop-color="#41619d"/></linearGradient><path d="M10.8 25c4.4-7.3 13.6-10.7 7.1-25-2.1 2.2-4.2 4.3-6.3 6.3C9.9 8 8.4 9.5 6.9 11.1 2.1 16.5.1 21 0 25c.1 4 2.1 8.5 6.9 13.9 1.5 1.5 3 3.1 4.7 4.7-4.3-9.1-3.3-14.5-.8-18.6z" fill="url(#i)"/></symbol><symbol id="logo" viewBox="0 0 216.1 50"><path d="M24.09 6.33c-2-2-4.17-4.09-6.25-6.33-6.59 14.33 2.65 17.7 7.06 25 2.48-4.1 3.43-9.45-.81-18.67z" fill="url(#a)"/><path d="M28.77 11.07C33.54 16.51 35.55 21 35.68 25" fill="url(#b)"/><path d="M24.9 25c-4.41 7.3-13.65 10.67-7.06 25 2.08-2.24 4.21-4.33 6.25-6.33 4.24-9.22 3.29-14.57.81-18.67z" fill="url(#c)"/><path d="M28.77 11.07c-1.44-1.55-3-3.12-4.68-4.74 4.24 9.22 3.29 14.57.81 18.67 2.48 4.1 3.43 9.45-.81 18.67 1.65-1.62 3.24-3.19 4.68-4.74C33.54 33.49 35.55 29 35.68 25c-.13-4-2.14-8.49-6.91-13.93z" fill="url(#d)"/><path d="M28.77 11.07c-1.44-1.55-3-3.12-4.68-4.74 4.24 9.22 3.29 14.57.81 18.67 2.48 4.1 3.43 9.45-.81 18.67 1.65-1.62 3.24-3.19 4.68-4.74C33.54 33.49 35.55 29 35.68 25c-.13-4-2.14-8.49-6.91-13.93z" fill="url(#e)"/><path d="M11.59 43.67c2 2 4.17 4.09 6.25 6.33 6.58-14.33-2.65-17.7-7.06-25-2.48 4.1-3.43 9.45.81 18.67z" fill="url(#f)"/><path d="M0 25c.13-4 2.14-8.49 6.9-13.93" fill="url(#g)"/><path d="M10.78 25c-2.48-4.1-3.43-9.45.81-18.67C9.94 8 8.35 9.52 6.9 11.07 2.14 16.51.13 21 0 25c.13 4 2.14 8.49 6.9 13.93 1.45 1.55 3 3.12 4.69 4.74C7.35 34.45 8.3 29.1 10.78 25z" fill="url(#h)"/><path d="M10.78 25c4.41-7.3 13.64-10.67 7.06-25-2.08 2.24-4.21 4.33-6.25 6.33C9.94 8 8.35 9.52 6.9 11.07 2.14 16.51.13 21 0 25c.13 4 2.14 8.49 6.9 13.93 1.45 1.55 3 3.12 4.69 4.74C7.35 34.45 8.3 29.1 10.78 25z" fill="url(#i)"/><path class="cls-10" d="M206.74 25.63c-2.38 2.58-4.63 5-6.82 7.4-.62.69-.93.7-1.56 0-2-2.21-4-4.34-6-6.51-.2-.21-.39-.45-.6-.7a1.54 1.54 0 00-.19 1.1v7.53a5 5 0 01-5.35 5.32c-1 0-2-.06-3.06 0-.78.06-.93-.21-.93-1V11.69c0-.65.11-.76.71-.75 1.49.05 3 0 4.48 0a5.15 5.15 0 014.17 2.06c2.24 2.59 4.54 5.14 6.76 7.74.57.66.87.84 1.54 0 2.22-2.65 4.56-5.2 6.83-7.81A5 5 0 01210.8 11h4.47c.59 0 .83.1.83.77v27.27c0 .6-.18.75-.75.73h-3.76a4.93 4.93 0 01-4.84-4.89v-8zM69.9 25.4v-9.06c0-3.25 2-5.29 5.25-5.3h17.71c.7 0 .88.22.83.87s0 1.29 0 1.93a5 5 0 01-5.23 5.26h-8.65c-.82 0-1 .23-1 1 0 1.51 0 1.51 1.51 1.51h9.47c.59 0 .77.12.82.77.33 4.47-1.95 7-6.49 6.67-1.51-.12-3 0-4.57 0-.59 0-.74.16-.74.74 0 2 0 2 1.93 2h12c.79 0 1 .23 1 1-.09 1 .06 2-.12 2.94a4.91 4.91 0 01-4.89 4.17H74.89a4.92 4.92 0 01-4.94-4.9v-9.6zm-24.04 1.95V16.46c0-3.44 2-5.43 5.41-5.44h16.17c.68 0 1 .1.92.86s0 1.69 0 2.54a4.79 4.79 0 01-4.6 4.58c-2.53.1-5.08.07-7.62 0-.76 0-1 .19-1 .95v14.14c0 3.6-2 5.62-5.57 5.62h-3c-.67 0-.84-.18-.84-.84.14-3.79.13-7.66.13-11.52zm62.82-16.74a14.38 14.38 0 00-14.75 14.8 14.36 14.36 0 0014.66 14.77c8.59 0 14.9-6.23 14.91-14.73a14.41 14.41 0 00-14.82-14.84zm0 20.81a5.71 5.71 0 01-5.66-6c0-3.48 2.42-6 5.68-6s5.63 2.5 5.64 6-2.34 6.01-5.67 6zm61.76-20.37c-3.46-.07-6.92 0-10.37 0s-5.48 2-5.49 5.47 0 7.18 0 10.78v11.69c0 .58.07.85.75.82 1.29-.07 2.58 0 3.87 0a5 5 0 004.59-3.91 8.35 8.35 0 00.15-2.23c-.06-.64.13-.87.82-.85 1.66.05 3.32 0 5 0 6.25 0 10.53-3.79 11-10 .51-7.02-3.76-11.64-10.32-11.77zm.68 11.05a2.62 2.62 0 01-2.59 2.59h-4.06c-.46 0-.57-.16-.55-.59 0-.74 0-1.31.07-4.47 0-.78.89-.59 1.79-.61a18 18 0 013 .09 2.62 2.62 0 012.34 2.99zM153 39.07q-5-13.68-9.95-27.4a.84.84 0 00-.94-.66h-5.59a6.41 6.41 0 00-6.38 4.56c-1.39 3.77-2.75 7.55-4.12 11.32l-4.66 12.8h5.43a4.88 4.88 0 005.21-3.61.88.88 0 011-.71h8.54a1 1 0 011.12.82 4.88 4.88 0 005.06 3.57h4.79c.54.02.79.02.49-.69zm-18.42-10.59l2.76-8.23 2.75 8.23z"/></symbol><symbol id="management" viewBox="0 0 76.83 80"><path fill="currentColor" d="M76.79 18.21a4.9 4.9 0 00-4.87-4.55h-5.79V2.17A2.18 2.18 0 0064 0H12.88a2.18 2.18 0 00-2.18 2.17v11.49H4.92A4.9 4.9 0 000 18.21v43.24A4.9 4.9 0 004.92 66h25.43v8.61h-3.66a4.44 4.44 0 00-4.37 4.3l-.1 1.09h32.4l-.11-1.09a4.44 4.44 0 00-4.37-4.3h-3.65V66h25.43a4.9 4.9 0 004.87-4.55V18.21zM2 59.45V20.21h8.7v19.61A2.18 2.18 0 0012.88 42H64a2.18 2.18 0 002.18-2.17V20.21h8.7v39.24zm69.92-43.79a2.9 2.9 0 012.87 2.55h-8.66v-2.55zM12.7 2.17a.18.18 0 01.18-.17H64a.18.18 0 01.18.17v4.48H12.7zm51.43 6.48v31.17A.17.17 0 0164 40H12.88a.17.17 0 01-.18-.17V8.65zm-59.21 7h5.78v2.55H2a2.91 2.91 0 012.92-2.54zm45.22 61A2.35 2.35 0 0152.25 78H24.58a2.34 2.34 0 012.11-1.39h23.45zm-5.65-2H32.35V66h12.14zM71.92 64h-67A2.9 2.9 0 012 61.45h72.79A2.9 2.9 0 0171.92 64z"/><path fill="currentColor" d="M45.1 11.44H15.72v26.64H45.1zm-2 24.64H17.72V13.44H43.1zm5.58-22.78H62.4v2H48.68zm0 8.34h3.21v2h-3.21zm4.48 0h9.24v2h-9.24zm-4.48-4.44h5.25v2h-5.25zm6.72 0h7.01v2H55.4zm-6.72 8.68H62.4v2H48.68zm0 8.34h3.21v2h-3.21zm4.48 0h9.24v2h-9.24zm-4.48-4.44h5.25v2h-5.25zm6.72 0h7.01v2H55.4zm-.87-26.46h2.17v2h-2.17zm2.83 0h2.17v2h-2.17zm2.83 0h2.17v2h-2.17z"/><path fill="currentColor" d="M30.4 28.31A5.6 5.6 0 0136 33.9h2a7.59 7.59 0 00-5.87-7.38 6 6 0 003.22-5.24 4.92 4.92 0 10-9.84 0 6 6 0 003.21 5.23 7.6 7.6 0 00-5.89 7.39h2a5.6 5.6 0 015.57-5.59zm0-9.95a2.92 2.92 0 012.92 2.92c0 1.63-1.35 3.62-2.92 3.62s-2.92-2-2.92-3.62a2.92 2.92 0 012.93-2.92z"/></symbol><symbol id="minus" viewBox="0 0 11 1.5"><path fill="currentColor" d="M0 0h11v1.5H0z"/></symbol><symbol id="next" viewBox="0 0 10.38 15.52"><path fill="currentColor" d="M1.3 15.52L0 14l7.3-6.24L0 1.52 1.3 0l9.08 7.76-9.08 7.76z"/></symbol><symbol id="order" viewBox="0 0 9.3 10"><path d="M5.35 4h4V0H7.91v1.29a4.88 4.88 0 101 6.56l-1.13-.78a3.5 3.5 0 11-.53-4.51h-1.9z" fill="currentColor"/></symbol><symbol id="pay" viewBox="0 0 21.7 21.7"><path fill="currentColor" d="M10.8 3.5h-3v10.7h-2v1.6h2v1.7h1.6v-1.7h2.1v-1.6h-2v-1.6h1.4c3 0 5.1-1.8 5.1-4.3v-.5c0-2.5-2.2-4.3-5.2-4.3zm3.6 4.8c0 1.6-1.4 2.7-3.5 2.7H9.5V5.1h1.4c2.1 0 3.5 1.1 3.5 2.7v.5z"/><path fill="currentColor" d="M10.9 0C4.9 0 0 4.9 0 10.9s4.9 10.9 10.9 10.9 10.9-4.9 10.9-10.9c-.1-6-5-10.9-10.9-10.9zm0 20.1c-5.1 0-9.3-4.2-9.3-9.3s4.2-9.3 9.3-9.3 9.3 4.2 9.3 9.3-4.2 9.3-9.3 9.3z"/></symbol><symbol id="phone" viewBox="0 0 24.5 24.59"><path fill="currentColor" d="M22.47 24.59A22.5 22.5 0 010 2.11a2 2 0 012-2h4.5a2 2 0 012 2 13.71 13.71 0 00.69 4.32 2 2 0 01-.5 2.06L6.3 10.94a18.71 18.71 0 007.36 7.35l2.42-2.43a2 2 0 012.06-.49 13.77 13.77 0 004.33.69 2 2 0 012 2v4.47a2 2 0 01-2 2.06zM2 1.59a.52.52 0 00-.53.52 21 21 0 0021 21 .52.52 0 00.53-.53v-4.49a.52.52 0 00-.53-.53 15.2 15.2 0 01-4.79-.77.54.54 0 00-.54.13L14 20.13l-.49-.25a20.13 20.13 0 01-8.75-8.74l-.24-.49 3.14-3.21a.53.53 0 00.13-.54A15.37 15.37 0 017 2.12a.52.52 0 00-.53-.53z"/><path fill="currentColor" d="M19.11 11.1h-1.5a4.89 4.89 0 00-4.88-4.89v-1.5a6.39 6.39 0 016.38 6.39z"/><path fill="currentColor" d="M23.83 11.1h-1.5a9.62 9.62 0 00-9.6-9.6V0a11.11 11.11 0 0111.1 11.1z"/></symbol><symbol id="photo" viewBox="0 0 14.1 12.2"><path fill="currentColor" d="M7 4.9c.6 0 1.1.2 1.5.6s.6 1 .6 1.5-.2 1.1-.6 1.5-.9.6-1.5.6-1-.2-1.5-.6-.6-.9-.6-1.5.2-1 .6-1.5 1-.6 1.5-.6zm5.2-3c.5 0 1 .2 1.3.5s.5.8.5 1.3v6.6c0 .5-.2 1-.5 1.3s-.8.5-1.3.5H1.9c-.5 0-1-.2-1.3-.5s-.6-.8-.6-1.3V3.8c0-.5.2-1 .5-1.3S1.3 2 1.8 2h1.6l.4-1c.2-.4.4-.6.6-.7s.5-.3.8-.3H9c.3 0 .5.1.8.3s.4.4.5.6l.4 1h1.5zM7 10.3c.9 0 1.7-.3 2.3-1s1-1.4 1-2.3-.3-1.7-1-2.3-1.4-1-2.3-1-1.7.3-2.3 1-1 1.4-1 2.3.3 1.7 1 2.3 1.4 1 2.3 1z"/></symbol><symbol id="pickup" viewBox="0 0 15.9 22.1"><path fill="currentColor" d="M7.9 22.1l-.6-.8C6.6 20.4 0 12 0 7.9 0 3.6 3.6 0 7.9 0s7.9 3.6 7.9 7.9c0 4.1-6.6 12.4-7.3 13.4l-.6.8zm0-20.5c-3.5 0-6.3 2.8-6.3 6.3 0 2.7 4.1 8.7 6.3 11.6 2.2-2.9 6.3-8.9 6.3-11.6.1-3.5-2.8-6.3-6.3-6.3z"/><path fill="currentColor" d="M7.9 14.4l-.7-1.1c-.9-1.5-2.5-4.2-2.7-5.4C4.5 6 6 4.5 7.9 4.5s3.4 1.5 3.4 3.4c-.2 1.3-1.8 4-2.7 5.5l-.7 1zm0-8.2c-1 0-1.8.8-1.8 1.7 0 .4.6 1.7 1.8 3.6C9 9.6 9.6 8.3 9.7 7.9c0-.9-.8-1.7-1.8-1.7z"/></symbol><symbol id="plus" viewBox="0 0 11 11"><path fill="currentColor" d="M11 4.75H6.25V0h-1.5v4.75H0v1.5h4.75V11h1.5V6.25H11v-1.5z"/></symbol><symbol id="polyethylene" viewBox="0 0 31.14 31.5"><path class="cls-2" d="M9.6 3.2v25.39c0 1.19-2 2.16-4.43 2.16s-4.42-1-4.42-2.16V3.2"/><ellipse class="cls-2" cx="5.17" cy="2.91" rx="4.42" ry="2.16"/><path class="cls-3" d="M31.14 2.08h-21C9.51.85 7.6 0 5.17 0 2.22 0 0 1.25 0 2.91a1.35 1.35 0 00.05.29H0v25.39c0 1.66 2.22 2.91 5.17 2.91 2.35 0 4.21-.8 4.89-1.95h21.08zm-26-.58c2 0 3.36.68 3.62 1.23v.36c-.26.55-1.63 1.23-3.62 1.23C3 4.32 1.5 3.47 1.5 2.91S3 1.5 5.17 1.5zm0 28.5C3 30 1.5 29.15 1.5 28.59V5a7.72 7.72 0 003.67.82A7.77 7.77 0 008.85 5v23.59c0 .56-1.47 1.41-3.68 1.41zm24.47-1.95H10.35V3.58h19.29z"/><ellipse class="cls-3" cx="5.17" cy="2.91" rx="2.26" ry=".75"/></symbol><symbol id="postponement" viewBox="0 0 91.32 79.06"><path fill="currentColor" d="M7.28 67.93a3.25 3.25 0 103.25 3.24 3.25 3.25 0 00-3.25-3.24zm0 4.49a1.25 1.25 0 111.25-1.25 1.25 1.25 0 01-1.25 1.25z"/><path fill="currentColor" d="M88.84 50.09l-.45-.29-21 8.67c-1-3.36-5.59-4.37-5.74-4.4l-29.12-8.34-.24-.07-17.72 4v-7.13H0v34.71h14.57v-7L52 79.06l36.51-19.79.19-.12c1.85-1.62 2.72-3.32 2.61-5a5.78 5.78 0 00-2.47-4.06zM12.57 75.24H2V44.53h10.57v30.71zm74.89-17.67L51.7 76.94l-37.13-8.8V51.72l17.66-4 29 8.29s4.44 1 4.44 3.8a4.1 4.1 0 01-1.34 2.7 3.15 3.15 0 01-2.66.27l-16.23-3.87-.47 2 16.17 3.86a5 5 0 004.31-.59 5.73 5.73 0 002.07-3.54l20.6-8.52a3.45 3.45 0 011.19 2.17c.07 1-.55 2.12-1.85 3.28zm-41.8-17.06a17.82 17.82 0 10-17.82-17.82 17.84 17.84 0 0017.82 17.82zm0-33.64a15.82 15.82 0 11-15.82 15.82A15.84 15.84 0 0145.66 6.87z"/><path fill="currentColor" d="M40.61 32.12h2v-3.87H48v-2h-5.39v-2.11h4.91a5.94 5.94 0 000-11.88h-6.91v14h-1.75v2h1.75zm2-17.86h4.91a3.94 3.94 0 010 7.88h-4.91z"/><path fill="currentColor" d="M45.66 45.38A22.69 22.69 0 1023 22.69a22.72 22.72 0 0022.66 22.69zm0-43.38A20.69 20.69 0 1125 22.69 20.71 20.71 0 0145.66 2z"/></symbol><symbol id="print" viewBox="0 0 21.6 20.7"><path fill="currentColor" d="M21.6 5.4h-3V0H3v5.4H0v11.1h5v4.2h11.6v-4.2h5V5.4zm-17-3.8H17v3.8H4.6V1.6zM15 19.1H6.6v-6.8H15v6.8zm5-4.2h-3.4v-4.2H5v4.2H1.6V7H20v7.9z"/><path fill="currentColor" d="M8.8 14.9h4v1.6h-4z"/></symbol><symbol id="production" viewBox="0 0 83.24 79.02"><path fill="currentColor" d="M74.22 61H68.9V48.69H53.47V61h-4.13V48.69H33.9V61h-4.12V48.69H14.34V61H9a9 9 0 000 18h65.2a9 9 0 000-18zM55.47 50.69h4.71v1.52h2v-1.52h4.72V61H55.47zm-19.57 0h4.72v1.52h2v-1.52h4.72V61H35.9zm-19.56 0h4.72v1.52h2v-1.52h4.72V61H16.34zM74.22 77H9a7 7 0 010-14h65.2a7 7 0 010 14z"/><path fill="currentColor" d="M14.75 66a4 4 0 104 4 4 4 0 00-4-4zm0 6a2 2 0 112-2 2 2 0 01-2 2zm53.74-6a4 4 0 104 4 4 4 0 00-4-4zm0 6a2 2 0 112-2 2 2 0 01-2 2zm-13.43-6a4 4 0 104 4 4 4 0 00-4-4zm0 6a2 2 0 112-2 2 2 0 01-2 2zm-13.44-6a4 4 0 104 4 4 4 0 00-4-4zm0 6a2 2 0 112-2 2 2 0 01-2 2zm-13.43-6a4 4 0 104 4 4 4 0 00-4-4zm0 6a2 2 0 112-2 2 2 0 01-2 2zm2.12-58.38l3.24 1.43-1.08 3.37L35.18 21l3.3-1.28 1.62 3.15h.8v5.43a3.82 3.82 0 00-2.82 3.67v2.71l-2.81 4.18 3.83 6.51 1.73-1-3.2-5.42 2.11-3.14h4.45l2.11 3.14-3.19 5.35 1.72 1 3.84-6.51-3-4.37v-2.5a3.82 3.82 0 00-2.82-3.67v-5.49h.92l1.43-3.24 3.37 1.08 2.55-2.71-1.27-3.3L53 12.94l-.11-3.72-3.19-1.43 1.07-3.37-2.7-2.55-3.31 1.28L43.14 0l-3.72.11L38 3.35l-3.38-1.08L32.07 5l1.27 3.3-3.14 1.6zm13.41 18.3v1.82h-3.64v-1.82a1.82 1.82 0 013.64 0zM35.86 9.23l-1.47-3.8.82-.87 3.88 1.24 1.65-3.73h1.2l1.87 3.62 3.8-1.47.88.82-1.25 3.86L51 10.54v1.21l-3.63 1.86 1.47 3.8-.82.88-3.88-1.24-1.64 3.72h-1.2l-1.87-3.62-3.8 1.47-.87-.83L36 14l-3.73-1.7v-1.2z"/><path fill="currentColor" d="M41.62 16.58a5.16 5.16 0 10-5.16-5.16 5.16 5.16 0 005.16 5.16zm0-8.32a3.16 3.16 0 11-3.16 3.16 3.17 3.17 0 013.16-3.16zM12.57 22.21a3.83 3.83 0 00-2.82 3.67v2.71l-2.81 4.18 3.83 6.51 1.73-1-3.2-5.44 2.11-3.14h4.45L18 32.84l-3.19 5.42 1.72 1 3.84-6.51-2.98-4.35v-2.52a3.83 3.83 0 00-2.82-3.67v-6h12.48v-2H2.63V9.48h24.42v-2H.63v8.76h11.94zm2.82 3.67v1.82h-3.64v-1.82a1.82 1.82 0 013.64 0zm53.84-3.67a3.83 3.83 0 00-2.82 3.67v2.71l-2.81 4.18 3.83 6.51 1.73-1L66 32.84l2.12-3.14h4.44l2.11 3.14-3.19 5.42 1.72 1 3.8-6.49-3-4.37v-2.52a3.83 3.83 0 00-2.82-3.67v-6h11.43V7.48H56.19v2h24.42v4.76H56.19v2h13zm2.82 3.67v1.82h-3.64v-1.82a1.82 1.82 0 113.64 0z"/></symbol><symbol id="repeat" viewBox="0 0 25.2 20.1"><path fill="currentColor" d="M6.7 7.9L5.6 6.8 4.4 7.9c1-3.6 4.3-6.3 8.2-6.3 3.2 0 6.1 1.8 7.5 4.6l1.4-.7c-1.7-3.4-5.2-5.5-9-5.5-5 0-9.1 3.6-9.9 8.4L1.1 6.8 0 7.9l3.3 3.4 3.4-3.4zM25.2 11l-3.3-3.4-3.4 3.4 1.1 1.1 1.4-1.4c-.3 4.4-4 7.8-8.4 7.8-3.6 0-6.9-2.3-8-5.7l-1.5.5c1.4 4.1 5.2 6.8 9.5 6.8 5.4 0 9.7-4.2 10-9.5L24 12l1.2-1z"/><path fill="currentColor" d="M7.4 10.1c0 2.9 2.4 5.3 5.3 5.3s5.2-2.4 5.2-5.3-2.4-5.2-5.2-5.2-5.3 2.3-5.3 5.2zm8.9 0c0 2-1.6 3.7-3.6 3.7S9 12.2 9 10.1c0-2 1.6-3.6 3.7-3.6 1.9-.1 3.6 1.6 3.6 3.6z"/></symbol><symbol id="search" viewBox="0 0 22.26 21.2"><path d="M22.26 20.1L15.68 14a8.68 8.68 0 10-1 1.12l6.56 6.12zM8.72 15.94a7.23 7.23 0 115.5-2.55 7.23 7.23 0 01-5.5 2.55z" fill="#334361"/></symbol><symbol id="storage" viewBox="0 0 87.89 79.03"><path fill="currentColor" d="M9.08 13.52v20.77H4.37V79h74.44V13.53L44.06 4.92zm4.11 22.77v7.89h9.6v-7.89h7.38v19.37H6.37V36.29zm2 0h5.6v5.89h-5.6zm0 21.37h5.6v5.66h-5.6zM6.37 77V57.66h6.82v7.66h9.6v-7.66h7.38V77zm25.8-19.37h4.62v7.66h9.6v-7.63h6.33V77H32.17zm6.62 0h5.6v5.66h-5.6zM67.56 29.6H20.77v-3.48h46.79zM76.81 77h-7.25V24.12H18.77v8h2v-.52h46.79V35H34.87v2h32.69v2.92H34.87v2h32.69v2.91H34.87v2h32.69V77H54.72V55.66H32.17V34.29H11.08v-19.2L44.06 7l32.75 8.11z"/><path fill="currentColor" d="M44.31.07L44.06 0 0 11.37l.5 1.94L44.06 2.07l43.33 11.24.5-1.94L44.31.07z"/></symbol><symbol id="tc" viewBox="0 0 15.8 20.6"><path fill="currentColor" d="M10.8 0H0v20.6h15.8V5l-5-5zm.5 2.7l1.8 1.8h-1.8V2.7zM1.6 19V1.6h8.1v4.5h4.5V19H1.6z"/><path fill="currentColor" d="M3.4 7.1h4.4v1.6H3.4zm0 2.9h9v1.6h-9zm0 2.9h9v1.6h-9zm0 2.9h9v1.6h-9z"/></symbol><symbol id="telegram" viewBox="0 0 20 16.64"><path d="M7.94 11l-.32 4.65a1.18 1.18 0 00.92-.45l2.21-2.12 4.57 3.34c.84.47 1.42.23 1.62-.77l3-14.13c.28-1.25-.45-1.74-1.26-1.43L.92 6.87C-.29 7.34-.26 8 .73 8.32l4.52 1.41 10.53-6.59c.48-.32.93-.14.56.19z" fill="currentColor"/></symbol><symbol id="terms" viewBox="0 0 15.8 20.6"><path class="st0" d="M10.8 0H0v20.6h15.8V5l-5-5zm.5 2.7l1.8 1.8h-1.8V2.7zM1.6 19V1.6h8.1v4.5h4.5V19H1.6z"/><path class="st0" d="M3.4 7.1h4.4v1.6H3.4zm0 2.9h9v1.6h-9zm0 2.9h9v1.6h-9zm0 2.9h9v1.6h-9z"/></symbol><symbol id="tile" viewBox="0 0 23.5 23.5"><path fill="currentColor" d="M5.9 5.9H0V0h5.9v5.9zM1.5 4.4h2.9V1.5H1.5v2.9zm13.2 1.5H8.8V0h5.9v5.9zm-4.4-1.5h2.9V1.5h-2.9v2.9zm13.2 1.5h-5.9V0h5.9v5.9zm-4.4-1.5H22V1.5h-2.9v2.9zM5.9 23.5H0v-5.9h5.9v5.9zM1.5 22h2.9v-2.9H1.5V22zm13.2 1.5H8.8v-5.9h5.9v5.9zM10.3 22h2.9v-2.9h-2.9V22zm13.2 1.5h-5.9v-5.9h5.9v5.9zM19.1 22H22v-2.9h-2.9V22zM5.9 14.7H0V8.8h5.9v5.9zm-4.4-1.5h2.9v-2.9H1.5v2.9zm13.2 1.5H8.8V8.8h5.9v5.9zm-4.4-1.5h2.9v-2.9h-2.9v2.9zm13.2 1.5h-5.9V8.8h5.9v5.9zm-4.4-1.5H22v-2.9h-2.9v2.9z"/></symbol><symbol id="vk" viewBox="0 0 20 11.72"><path d="M16.6 6.74c-.33-.41-.23-.59 0-1 0 0 2.67-3.7 2.94-4.95.13-.45 0-.79-.66-.79H16.7a.94.94 0 00-.95.61 18.28 18.28 0 01-2.69 4.44c-.51.5-.74.66-1 .66s-.35-.16-.35-.61V.84c0-.55-.16-.79-.62-.79H7.63a.53.53 0 00-.55.49c0 .52.79.64.87 2.1V5.8c0 .7-.13.82-.41.82C6.8 6.62 5 4 3.93.89c-.22-.6-.43-.84-1-.84H.75C.13.05 0 .34 0 .66c0 .57.74 3.39 3.46 7.13a8.55 8.55 0 006.67 3.93c1.39 0 1.56-.31 1.56-.84 0-2.43-.12-2.66.57-2.66.33 0 .88.16 2.18 1.39 1.49 1.44 1.73 2.11 2.56 2.11h2.19c.62 0 .94-.31.76-.91-.42-1.28-3.23-3.89-3.35-4.07z" fill="currentColor"/></symbol><symbol id="watsapp" viewBox="0 0 20 20"><path d="M10 0a10 10 0 00-8.1 15.86L.66 19.58l3.84-1.23A10 10 0 1010 0zm5.82 14.12a2.81 2.81 0 01-2 1.41c-.52.11-1.21.2-3.5-.75a12.51 12.51 0 01-5-4.4 5.69 5.69 0 01-1.19-3 3.21 3.21 0 011-2.44 1.48 1.48 0 011-.36h.34c.29 0 .44 0 .63.5s.83 2 .9 2.16a.6.6 0 01.05.54 1.85 1.85 0 01-.33.46c-.15.17-.29.3-.43.49a.46.46 0 00-.12.62 8.94 8.94 0 001.62 2 7.15 7.15 0 002.35 1.45.62.62 0 00.7-.11 10 10 0 00.78-1 .56.56 0 01.72-.21c.27.09 1.7.8 2 .94s.49.22.56.34a2.5 2.5 0 01-.08 1.36z" fill="currentColor"/></symbol><symbol id="webim" viewBox="0 0 28.26 20.82"><path fill="currentColor" d="M22 19.32H1.5v-14l9.8 7.25a.76.76 0 00.45.15.79.79 0 00.44-.14l2.56-1.86a7.12 7.12 0 01-.6-1.42l-2.4 1.7L3 4.56h11.36a7 7 0 01.81-1.5H.75a.76.76 0 00-.75.75v16.26a.75.75 0 00.75.75h22a.75.75 0 00.75-.75V14a6.86 6.86 0 01-1.5.37z"/><path fill="currentColor" d="M21.05 14.41a7.21 7.21 0 117.21-7.2 7.21 7.21 0 01-7.21 7.2zm0-12.91a5.71 5.71 0 105.71 5.71 5.71 5.71 0 00-5.71-5.71z"/><path fill="currentColor" d="M20.47 8.53a2.41 2.41 0 01.12-.82 2.09 2.09 0 01.28-.56 2.23 2.23 0 01.37-.38l.37-.31a1.34 1.34 0 00.29-.34.86.86 0 00.1-.47.81.81 0 00-.22-.65 1 1 0 00-.68-.23 1 1 0 00-.71.25 1.05 1.05 0 00-.3.69h-1.23a2.13 2.13 0 01.14-.78 2 2 0 01.45-.65 2 2 0 01.68-.42 2.5 2.5 0 01.88-.15 3 3 0 01.95.13 2.09 2.09 0 01.69.38 1.83 1.83 0 01.42.58 2 2 0 01.14.75 1.79 1.79 0 01-.12.7 1.84 1.84 0 01-.3.49 2.79 2.79 0 01-.39.38 3.33 3.33 0 00-.39.36 1.6 1.6 0 00-.29.44 1.38 1.38 0 00-.12.61zm.58 2.18a.77.77 0 01-.56-.23.8.8 0 01-.22-.55.78.78 0 01.22-.55.73.73 0 01.56-.23.7.7 0 01.56.23.74.74 0 01.22.55.75.75 0 01-.22.55.74.74 0 01-.56.23z"/></symbol><symbol id="yes" viewBox="0 0 11.92 9.03"><path fill="currentColor" d="M3.96 9.03L0 5.07l1.06-1.06 2.9 2.89 6.9-6.9 1.07 1.06-7.97 7.97z"/></symbol><symbol id="youtube" viewBox="0 0 20 15.01"><path d="M19.59 2.35A2.51 2.51 0 0017.82.47 53.75 53.75 0 0010 0a58.3 58.3 0 00-7.82.44A2.66 2.66 0 00.41 2.35 30.75 30.75 0 000 7.5a30.58 30.58 0 00.41 5.15 2.49 2.49 0 001.77 1.89A53.74 53.74 0 0010 15a56.77 56.77 0 007.82-.43 2.58 2.58 0 001.77-1.89A30.93 30.93 0 0020 7.5a29.73 29.73 0 00-.41-5.15zM8 10.72V4.29l5.2 3.21z" fill="currentColor"/></symbol></svg>
